<svg width="593.8437866210937px" height="128px" xmlns="http://www.w3.org/2000/svg" viewBox="-46.921893310546864 11 593.8437866210937 128" style="background: rgba(29, 3, 3, 0);" preserveAspectRatio="xMidYMid"><defs><linearGradient id="editing-gradow-gradient" x1="0" x2="1" y1="0.5" y2="0.5" gradientUnits="objectBoundingBox"><stop offset="0" stop-color="#ffffff"></stop><stop offset="1" stop-color="#ffffff"></stop></linearGradient><filter id="editing-gradow-filter" x="-100%" y="-100%" width="300%" height="300%"><feFlood flood-color="rgba(0%,0%,0%,0)" result="flood"></feFlood><feComposite operator="in" in2="SourceAlpha" in="flood" result="shadow"></feComposite><feOffset dx="-1.6" dy="-4" in="SourceGraphic" result="offset-1"></feOffset><feOffset dx="1.6" dy="4" in="shadow" result="offset-2"></feOffset><feMerge><feMergeNode in="offset-2"></feMergeNode><feMergeNode in="offset-1"></feMergeNode></feMerge></filter></defs><g filter="url(#editing-gradow-filter)"><g transform="translate(37.344979763031006, 98.76000022888184)"><path d="M5.15 0L5.15-46.20L8.58-46.20L8.58 0L5.15 0ZM33.20-17.49L34.25-17.49L42.97-46.20L48.71-46.20L48.71 0L45.14 0L45.14-38.41L44.29-38.41L36.56-13.60L30.82-13.60L23.17-38.41L22.37-38.41L22.37 0L18.88 0L18.88-46.20L24.62-46.20L33.20-17.49ZM69.89-43.03L69.89-43.03L69.89-43.03Q68.71-43.03 67.45-42.73L67.45-42.73L67.45-42.73Q66.20-42.44 65.08-42.11L65.08-42.11L65.08-42.11Q63.82-41.71 62.57-41.25L62.57-41.25L62.57-22.70L69.89-22.70L69.89-22.70Q74.65-22.70 77.55-25.34L77.55-25.34L77.55-25.34Q80.45-27.98 80.45-33.20L80.45-33.20L80.45-33.20Q80.45-38.35 77.52-40.69L77.52-40.69L77.52-40.69Q74.58-43.03 69.89-43.03ZM70.42-46.86L70.42-46.86L70.42-46.86Q73.13-46.86 75.64-45.90L75.64-45.90L75.64-45.90Q78.14-44.95 80.06-43.16L80.06-43.16L80.06-43.16Q81.97-41.38 83.09-38.84L83.09-38.84L83.09-38.84Q84.22-36.30 84.22-33.20L84.22-33.20L84.22-33.20Q84.22-30.03 83.16-27.39L83.16-27.39L83.16-27.39Q82.10-24.75 80.26-22.87L80.26-22.87L80.26-22.87Q78.41-20.99 75.87-19.93L75.87-19.93L75.87-19.93Q73.33-18.88 70.36-18.88L70.36-18.88L62.50-18.88L62.50 0L59.00 0L59.00-44.29L59.00-44.29Q60.72-44.95 62.63-45.54L62.63-45.54L62.63-45.54Q64.28-46.07 66.30-46.46L66.30-46.46L66.30-46.46Q68.31-46.86 70.42-46.86ZM104.02-2.84L104.02-2.84L104.02-2.84Q105.20-2.84 106.79-3.20L106.79-3.20L106.79-3.20Q108.37-3.56 109.79-4.52L109.79-4.52L109.79-4.52Q111.21-5.48 112.17-7.13L112.17-7.13L112.17-7.13Q113.12-8.78 113.12-11.42L113.12-11.42L113.12-46.27L116.56-46.27L116.56-11.42L116.56-11.42Q116.56-9.50 115.96-7.43L115.96-7.43L115.96-7.43Q115.37-5.35 113.95-3.60L113.95-3.60L113.95-3.60Q112.53-1.85 110.09-0.69L110.09-0.69L110.09-0.69Q107.65 0.46 104.02 0.46L104.02 0.46L104.02 0.46Q100.39 0.46 97.98-0.69L97.98-0.69L97.98-0.69Q95.57-1.85 94.12-3.60L94.12-3.60L94.12-3.60Q92.66-5.35 92.07-7.43L92.07-7.43L92.07-7.43Q91.48-9.50 91.48-11.42L91.48-11.42L91.48-46.27L94.91-46.27L94.91-11.42L94.91-11.42Q94.91-8.78 95.83-7.13L95.83-7.13L95.83-7.13Q96.76-5.48 98.11-4.52L98.11-4.52L98.11-4.52Q99.46-3.56 101.05-3.20L101.05-3.20L101.05-3.20Q102.63-2.84 104.02-2.84ZM126.79 0L126.79-46.20L130.55-46.20L130.55-3.70L145.20-3.70L145.20 0L126.79 0ZM175.49-13.53L175.49-13.53L175.49-13.53Q175.49-10.76 174.54-8.32L174.54-8.32L174.54-8.32Q173.58-5.87 171.90-4.06L171.90-4.06L171.90-4.06Q170.21-2.24 167.90-1.16L167.90-1.16L167.90-1.16Q165.59-0.07 162.95-0.07L162.95-0.07L162.95-0.07Q160.38-0.07 157.94-0.73L157.94-0.73L157.94-0.73Q155.50-1.39 153.58-2.18L153.58-2.18L153.58-2.18Q151.34-3.10 149.29-4.36L149.29-4.36L150.61-7.99L150.61-7.99Q152.86-6.80 155.03-5.94L155.03-5.94L155.03-5.94Q156.95-5.21 159.06-4.59L159.06-4.59L159.06-4.59Q161.17-3.96 162.89-3.96L162.89-3.96L162.89-3.96Q164.74-3.96 166.35-4.69L166.35-4.69L166.35-4.69Q167.97-5.41 169.16-6.70L169.16-6.70L169.16-6.70Q170.35-7.99 171.01-9.70L171.01-9.70L171.01-9.70Q171.67-11.42 171.67-13.40L171.67-13.40L171.67-13.40Q171.67-15.44 170.74-16.80L170.74-16.80L170.74-16.80Q169.82-18.15 168.40-19.04L168.40-19.04L168.40-19.04Q166.98-19.93 165.26-20.43L165.26-20.43L165.26-20.43Q163.55-20.92 161.90-21.19L161.90-21.19L161.90-21.19Q159.46-21.58 157.31-22.57L157.31-22.57L157.31-22.57Q155.17-23.56 153.55-25.15L153.55-25.15L153.55-25.15Q151.93-26.73 151.01-28.84L151.01-28.84L151.01-28.84Q150.08-30.95 150.08-33.59L150.08-33.59L150.08-33.59Q150.08-36.30 151.04-38.71L151.04-38.71L151.04-38.71Q152.00-41.12 153.68-42.93L153.68-42.93L153.68-42.93Q155.36-44.75 157.61-45.80L157.61-45.80L157.61-45.80Q159.85-46.86 162.36-46.86L162.36-46.86L162.36-46.86Q163.94-46.86 165.63-46.50L165.63-46.50L165.63-46.50Q167.31-46.13 168.76-45.74L168.76-45.74L168.76-45.74Q170.41-45.21 172.00-44.62L172.00-44.62L170.74-40.92L170.74-40.92Q169.29-41.51 167.77-41.98L167.77-41.98L167.77-41.98Q166.45-42.37 165-42.70L165-42.70L165-42.70Q163.55-43.03 162.23-43.03L162.23-43.03L162.23-43.03Q160.45-43.03 158.90-42.27L158.90-42.27L158.90-42.27Q157.34-41.51 156.22-40.23L156.22-40.23L156.22-40.23Q155.10-38.94 154.44-37.26L154.44-37.26L154.44-37.26Q153.78-35.57 153.78-33.79L153.78-33.79L153.78-33.79Q153.78-31.75 154.61-30.20L154.61-30.20L154.61-30.20Q155.43-28.64 156.72-27.59L156.72-27.59L156.72-27.59Q158.00-26.53 159.59-25.91L159.59-25.91L159.59-25.91Q161.17-25.28 162.62-25.01L162.62-25.01L162.62-25.01Q165.33-24.55 167.67-23.69L167.67-23.69L167.67-23.69Q170.02-22.84 171.77-21.48L171.77-21.48L171.77-21.48Q173.51-20.13 174.50-18.15L174.50-18.15L174.50-18.15Q175.49-16.17 175.49-13.53ZM182.49-46.20L201.10-46.20L201.10-42.44L186.25-42.44L186.25-25.15L197.87-25.15L197.87-21.32L186.25-21.32L186.25-3.89L201.23-3.89L201.23-0.07L182.49-0.07L182.49-46.20ZM246.97-13.53L246.97-13.53L246.97-13.53Q246.97-10.76 246.02-8.32L246.02-8.32L246.02-8.32Q245.06-5.87 243.38-4.06L243.38-4.06L243.38-4.06Q241.69-2.24 239.38-1.16L239.38-1.16L239.38-1.16Q237.07-0.07 234.43-0.07L234.43-0.07L234.43-0.07Q231.86-0.07 229.42-0.73L229.42-0.73L229.42-0.73Q226.97-1.39 225.06-2.18L225.06-2.18L225.06-2.18Q222.82-3.10 220.77-4.36L220.77-4.36L222.09-7.99L222.09-7.99Q224.33-6.80 226.51-5.94L226.51-5.94L226.51-5.94Q228.43-5.21 230.54-4.59L230.54-4.59L230.54-4.59Q232.65-3.96 234.37-3.96L234.37-3.96L234.37-3.96Q236.21-3.96 237.83-4.69L237.83-4.69L237.83-4.69Q239.45-5.41 240.64-6.70L240.64-6.70L240.64-6.70Q241.82-7.99 242.48-9.70L242.48-9.70L242.48-9.70Q243.14-11.42 243.14-13.40L243.14-13.40L243.14-13.40Q243.14-15.44 242.22-16.80L242.22-16.80L242.22-16.80Q241.30-18.15 239.88-19.04L239.88-19.04L239.88-19.04Q238.46-19.93 236.74-20.43L236.74-20.43L236.74-20.43Q235.03-20.92 233.38-21.19L233.38-21.19L233.38-21.19Q230.93-21.58 228.79-22.57L228.79-22.57L228.79-22.57Q226.64-23.56 225.03-25.15L225.03-25.15L225.03-25.15Q223.41-26.73 222.49-28.84L222.49-28.84L222.49-28.84Q221.56-30.95 221.56-33.59L221.56-33.59L221.56-33.59Q221.56-36.30 222.52-38.71L222.52-38.71L222.52-38.71Q223.48-41.12 225.16-42.93L225.16-42.93L225.16-42.93Q226.84-44.75 229.09-45.80L229.09-45.80L229.09-45.80Q231.33-46.86 233.84-46.86L233.84-46.86L233.84-46.86Q235.42-46.86 237.11-46.50L237.11-46.50L237.11-46.50Q238.79-46.13 240.24-45.74L240.24-45.74L240.24-45.74Q241.89-45.21 243.47-44.62L243.47-44.62L242.22-40.92L242.22-40.92Q240.77-41.51 239.25-41.98L239.25-41.98L239.25-41.98Q237.93-42.37 236.48-42.70L236.48-42.70L236.48-42.70Q235.03-43.03 233.71-43.03L233.71-43.03L233.71-43.03Q231.92-43.03 230.37-42.27L230.37-42.27L230.37-42.27Q228.82-41.51 227.70-40.23L227.70-40.23L227.70-40.23Q226.58-38.94 225.92-37.26L225.92-37.26L225.92-37.26Q225.26-35.57 225.26-33.79L225.26-33.79L225.26-33.79Q225.26-31.75 226.08-30.20L226.08-30.20L226.08-30.20Q226.91-28.64 228.20-27.59L228.20-27.59L228.20-27.59Q229.48-26.53 231.07-25.91L231.07-25.91L231.07-25.91Q232.65-25.28 234.10-25.01L234.10-25.01L234.10-25.01Q236.81-24.55 239.15-23.69L239.15-23.69L239.15-23.69Q241.49-22.84 243.24-21.48L243.24-21.48L243.24-21.48Q244.99-20.13 245.98-18.15L245.98-18.15L245.98-18.15Q246.97-16.17 246.97-13.53ZM275.09-46.20L275.09-46.20L275.09-42.64L264.53-42.64L264.53 0L260.96 0L260.96-42.64L250.01-42.64L250.01-46.20L275.09-46.20ZM293.96-2.84L293.96-2.84L293.96-2.84Q295.15-2.84 296.74-3.20L296.74-3.20L296.74-3.20Q298.32-3.56 299.74-4.52L299.74-4.52L299.74-4.52Q301.16-5.48 302.12-7.13L302.12-7.13L302.12-7.13Q303.07-8.78 303.07-11.42L303.07-11.42L303.07-46.27L306.50-46.27L306.50-11.42L306.50-11.42Q306.50-9.50 305.91-7.43L305.91-7.43L305.91-7.43Q305.32-5.35 303.90-3.60L303.90-3.60L303.90-3.60Q302.48-1.85 300.04-0.69L300.04-0.69L300.04-0.69Q297.59 0.46 293.96 0.46L293.96 0.46L293.96 0.46Q290.33 0.46 287.93-0.69L287.93-0.69L287.93-0.69Q285.52-1.85 284.06-3.60L284.06-3.60L284.06-3.60Q282.61-5.35 282.02-7.43L282.02-7.43L282.02-7.43Q281.42-9.50 281.42-11.42L281.42-11.42L281.42-46.27L284.86-46.27L284.86-11.42L284.86-11.42Q284.86-8.78 285.78-7.13L285.78-7.13L285.78-7.13Q286.70-5.48 288.06-4.52L288.06-4.52L288.06-4.52Q289.41-3.56 290.99-3.20L290.99-3.20L290.99-3.20Q292.58-2.84 293.96-2.84ZM316.40-1.78L316.40-44.29L316.40-44.29Q320.36-45.94 323.04-46.40L323.04-46.40L323.04-46.40Q325.71-46.86 326.63-46.86L326.63-46.86L326.63-46.86Q329.21-46.86 331.42-45.77L331.42-45.77L331.42-45.77Q333.63-44.68 335.21-42.87L335.21-42.87L335.21-42.87Q336.80-41.05 337.72-38.61L337.72-38.61L337.72-38.61Q338.65-36.17 338.65-33.46L338.65-33.46L338.65-12.21L338.65-12.21Q338.65-9.44 337.59-7.10L337.59-7.10L337.59-7.10Q336.53-4.75 334.79-3.00L334.79-3.00L334.79-3.00Q333.04-1.25 330.73-0.30L330.73-0.30L330.73-0.30Q328.42 0.66 325.91 0.66L325.91 0.66L325.91 0.66Q325.38 0.66 324.69 0.59L324.69 0.59L324.69 0.59Q323.99 0.53 322.87 0.30L322.87 0.30L322.87 0.30Q321.75 0.07 320.17-0.43L320.17-0.43L320.17-0.43Q318.58-0.92 316.40-1.78L316.40-1.78ZM334.82-12.80L334.69-33.46L334.69-33.46Q334.69-36.43 333.33-38.64L333.33-38.64L333.33-38.64Q331.98-40.85 330.33-41.91L330.33-41.91L330.33-41.91Q328.28-43.03 326.63-43.03L326.63-43.03L326.63-43.03Q325.12-43.03 323.33-42.37L323.33-42.37L323.33-42.37Q321.55-41.71 320.10-41.12L320.10-41.12L320.10-4.82L320.10-4.82Q321.55-4.16 322.61-3.83L322.61-3.83L322.61-3.83Q323.66-3.50 324.39-3.37L324.39-3.37L324.39-3.37Q325.12-3.23 325.61-3.23L325.61-3.23L325.61-3.23Q326.11-3.23 326.44-3.23L326.44-3.23L326.44-3.23Q328.09-3.23 329.60-4.03L329.60-4.03L329.60-4.03Q331.12-4.82 332.28-6.14L332.28-6.14L332.28-6.14Q333.43-7.46 334.13-9.17L334.13-9.17L334.13-9.17Q334.82-10.89 334.82-12.80L334.82-12.80ZM348.22 0L348.22-46.20L351.65-46.20L351.65 0L348.22 0ZM383.00-11.35L383.00-11.35L383.00-34.52L383.00-34.52Q383.00-37.16 381.98-38.77L381.98-38.77L381.98-38.77Q380.95-40.39 379.53-41.28L379.53-41.28L379.53-41.28Q378.11-42.17 376.56-42.47L376.56-42.47L376.56-42.47Q375.01-42.77 373.96-42.77L373.96-42.77L373.96-42.77Q372.90-42.77 371.35-42.44L371.35-42.44L371.35-42.44Q369.80-42.11 368.35-41.22L368.35-41.22L368.35-41.22Q366.89-40.33 365.87-38.71L365.87-38.71L365.87-38.71Q364.85-37.09 364.85-34.45L364.85-34.45L364.85-11.29L364.85-11.29Q364.85-8.65 365.87-7.10L365.87-7.10L365.87-7.10Q366.89-5.54 368.35-4.72L368.35-4.72L368.35-4.72Q369.80-3.89 371.35-3.66L371.35-3.66L371.35-3.66Q372.90-3.43 373.96-3.43L373.96-3.43L373.96-3.43Q375.01-3.43 376.56-3.70L376.56-3.70L376.56-3.70Q378.11-3.96 379.53-4.79L379.53-4.79L379.53-4.79Q380.95-5.61 381.98-7.16L381.98-7.16L381.98-7.16Q383.00-8.71 383.00-11.35ZM386.63-34.52L386.63-11.35L386.63-11.35Q386.63-9.90 386.07-7.85L386.07-7.85L386.07-7.85Q385.51-5.81 384.05-3.93L384.05-3.93L384.05-3.93Q382.60-2.05 380.13-0.73L380.13-0.73L380.13-0.73Q377.65 0.59 373.89 0.59L373.89 0.59L373.89 0.59Q370.19 0.59 367.75-0.73L367.75-0.73L367.75-0.73Q365.31-2.05 363.89-3.93L363.89-3.93L363.89-3.93Q362.47-5.81 361.88-7.85L361.88-7.85L361.88-7.85Q361.28-9.90 361.28-11.35L361.28-11.35L361.28-34.45L361.28-34.45Q361.28-35.90 361.85-38.02L361.85-38.02L361.85-38.02Q362.41-40.13 363.86-42.08L363.86-42.08L363.86-42.08Q365.31-44.02 367.75-45.41L367.75-45.41L367.75-45.41Q370.19-46.79 373.96-46.79L373.96-46.79L373.96-46.79Q377.65-46.79 380.09-45.41L380.09-45.41L380.09-45.41Q382.54-44.02 383.99-42.11L383.99-42.11L383.99-42.11Q385.44-40.19 386.03-38.08L386.03-38.08L386.03-38.08Q386.63-35.97 386.63-34.52L386.63-34.52ZM420.16-13.53L420.16-13.53L420.16-13.53Q420.16-10.76 419.20-8.32L419.20-8.32L419.20-8.32Q418.24-5.87 416.56-4.06L416.56-4.06L416.56-4.06Q414.88-2.24 412.57-1.16L412.57-1.16L412.57-1.16Q410.26-0.07 407.62-0.07L407.62-0.07L407.62-0.07Q405.04-0.07 402.60-0.73L402.60-0.73L402.60-0.73Q400.16-1.39 398.24-2.18L398.24-2.18L398.24-2.18Q396.00-3.10 393.95-4.36L393.95-4.36L395.27-7.99L395.27-7.99Q397.52-6.80 399.70-5.94L399.70-5.94L399.70-5.94Q401.61-5.21 403.72-4.59L403.72-4.59L403.72-4.59Q405.83-3.96 407.55-3.96L407.55-3.96L407.55-3.96Q409.40-3.96 411.02-4.69L411.02-4.69L411.02-4.69Q412.63-5.41 413.82-6.70L413.82-6.70L413.82-6.70Q415.01-7.99 415.67-9.70L415.67-9.70L415.67-9.70Q416.33-11.42 416.33-13.40L416.33-13.40L416.33-13.40Q416.33-15.44 415.40-16.80L415.40-16.80L415.40-16.80Q414.48-18.15 413.06-19.04L413.06-19.04L413.06-19.04Q411.64-19.93 409.93-20.43L409.93-20.43L409.93-20.43Q408.21-20.92 406.56-21.19L406.56-21.19L406.56-21.19Q404.12-21.58 401.97-22.57L401.97-22.57L401.97-22.57Q399.83-23.56 398.21-25.15L398.21-25.15L398.21-25.15Q396.59-26.73 395.67-28.84L395.67-28.84L395.67-28.84Q394.75-30.95 394.75-33.59L394.75-33.59L394.75-33.59Q394.75-36.30 395.70-38.71L395.70-38.71L395.70-38.71Q396.66-41.12 398.34-42.93L398.34-42.93L398.34-42.93Q400.03-44.75 402.27-45.80L402.27-45.80L402.27-45.80Q404.51-46.86 407.02-46.86L407.02-46.86L407.02-46.86Q408.61-46.86 410.29-46.50L410.29-46.50L410.29-46.50Q411.97-46.13 413.42-45.74L413.42-45.74L413.42-45.74Q415.07-45.21 416.66-44.62L416.66-44.62L415.40-40.92L415.40-40.92Q413.95-41.51 412.43-41.98L412.43-41.98L412.43-41.98Q411.11-42.37 409.66-42.70L409.66-42.70L409.66-42.70Q408.21-43.03 406.89-43.03L406.89-43.03L406.89-43.03Q405.11-43.03 403.56-42.27L403.56-42.27L403.56-42.27Q402.01-41.51 400.88-40.23L400.88-40.23L400.88-40.23Q399.76-38.94 399.10-37.26L399.10-37.26L399.10-37.26Q398.44-35.57 398.44-33.79L398.44-33.79L398.44-33.79Q398.44-31.75 399.27-30.20L399.27-30.20L399.27-30.20Q400.09-28.64 401.38-27.59L401.38-27.59L401.38-27.59Q402.67-26.53 404.25-25.91L404.25-25.91L404.25-25.91Q405.83-25.28 407.29-25.01L407.29-25.01L407.29-25.01Q409.99-24.55 412.34-23.69L412.34-23.69L412.34-23.69Q414.68-22.84 416.43-21.48L416.43-21.48L416.43-21.48Q418.18-20.13 419.17-18.15L419.17-18.15L419.17-18.15Q420.16-16.17 420.16-13.53Z" fill="url(#editing-gradow-gradient)"></path></g></g><style>text {
  font-size: 64px;
  font-family: Arial Black;
  dominant-baseline: central;
  text-anchor: middle;
}</style></svg>