<svg xmlns="http://www.w3.org/2000/svg" viewBox="0 0 523.43 358.56"><path d="M890.86,486c-5.27-2.44-9.79-5.88-14.39-9.43-3.59-2.77-8.17-4.53-12.09-7.18-7.56-5.14-15.4-9.89-22.91-15.1-3.2-2.23-4.5-1.88-5.25,1.94q-5.16,25.95-10.49,51.87-12,58.66-24.11,117.33c-.32,1.58-1.16,3.67.27,4.74,1.66,1.24,3.06-.7,4.32-1.59q29.76-21,59.45-42.14,34-24.09,68.07-48.15c2.35-1.66,4.39-1.85,6.83-.23q14.36,9.51,28.83,18.83c3.35,2.16,2.29,3.73-.3,5.55q-33.92,23.77-67.77,47.64Q838,654.89,774.7,699.83,757.6,711.95,740.43,724c-.9.64-1.78,1.88-3,1.3-1.83-.85-.56-2.43-.34-3.52q6.45-32.81,13.09-65.58,9.52-47.19,19.12-94.37c4.82-23.64,9.92-47.22,14.56-70.89,5-25.3,10.64-50.46,15-75.88,2.35-13.77,5.37-27.42,8.2-41.1,1.12-5.41,1.92-5.73,6.47-2.57C836.22,387.21,859.91,401.64,883,417c3.45,2.3,6.76,4.8,10.13,7.21-2.53.72-5.59,1-5.51,4.61.08,3.38,2.85,3.63,5.34,4,2.19.37,3.76,1.37,3.85,3.82a4.07,4.07,0,0,1-3.33,4.37c-4.48,1.13-5.41,4.25-5.36,8.31.11,7.8,0,15.61,0,23.42-.69.27-1.54.33-1.76,1.25,0,.08.17.3.25.29.93-.1,1.11-.92,1.47-1.57,6.29-.46,6.44-.24,5.32,5.69A27.47,27.47,0,0,1,890.86,486Z" transform="translate(-736.41 -369.35)" style="fill:#8a2629"/><path d="M1197.34,686.65l-1.51-.43-.31-.29-8.46-5.45-2.15-1.65-5.09-2.68-.23-.21-1.58-1.36a8.89,8.89,0,0,0-4.85-3.77l-6.24-3.1-1.11-.9c-9.81-5.76-19.38-11.89-28.66-18.47-.46-3.5-3.14-5.15-5.62-7.14-5.23-4.2-12.21-5.83-16.52-11.35,1.87-.36,4.5.2,4.79-2.49.24-2.18-2-2.9-3.67-3.55-4.21-1.68-6.07-4.87-6.56-9.19-.9-8-.45-16-.36-23.94,0-1.28.08-3.12,1.66-3.22,2.12-.14,1.85,1.94,2.06,3.33a25.29,25.29,0,0,1,.12,3.49c0,6.15,0,12.31.16,18.46.07,2.85,1,5.35,4.48,5.54a2.48,2.48,0,0,0,2.84-2.23c.21-1.74-.9-1.75-2.25-1.59-3.1.35-3-2.1-3.09-4-.15-5.65-.23-11.31-.08-17,.14-5.4.21-10.5-6.74-11.89a2.51,2.51,0,0,1-2.12-3c.3-1.36,1.6-1.61,2.75-1.73,2.77-.31,5.34-.84,6.07-4.12a97.27,97.27,0,0,1,13,7.31c7.91,5.42,15.14,11.87,23.89,16.06,1.22.58,2.37,1.49,2.22,3-.24,2.44.78,2.89,2.92,2.26s3.79.56,5.43,1.79c2.12,1.58,4.58,2.77,6.52,4.54,6.17,5.63,15.44,7.25,19.61,15.49,1.1,2.16,3,1.82,4.24-.31,2.56-4.54,5.12-9,1.59-14.37-1.5-2.26-1.52-5-1.47-7.73.16-16.13.66-32.28-3.43-48.11a18,18,0,0,1-.47-4.46c-.31-30.76-.14-61.51,1.76-92.23a31.61,31.61,0,0,0-2.34-14.58c-3.54-8.42-4-17.22.31-25.52,3.67-7,1.83-14,1.72-21.89-5.18,5.19-2.25,11.46-5.13,16.35a99.19,99.19,0,0,1-.77-15.36c0-2.11-.38-4-2.48-5.05-1-.53-2.26-1.09-1.89-2.55a2.72,2.72,0,0,1,3.13-1.94c3.11.21,3.55-1.61,3.54-4.09,0-3.19-1.87-3.37-4.34-3-1.91.29-3.56-.65-5.19-1.51a8.32,8.32,0,0,1,1.25-1.54c2.37-1.76,4.85-4.59,7.72-3.81,3.09.85,2.39,4.73,2.95,7.39,3.57,17.06,7.22,34.1,10.6,51.2,5.27,26.69,10.49,53.39,16.37,79.95a58,58,0,0,1,.68,7.93,81.67,81.67,0,0,0,4.2,28.32c2,5.68,2,11.4,1.48,17.23-.12,1.47-.68,2.93.22,4.36,4.59,7.33,4.24,15.92,6,23.95.6,2.73,1.56,5.89.75,8.31-3,9-1.36,18.17-1.48,27.24-.07,5.39,2.26,6.46,6.9,3.88.85-.47,1.6-1.49,2.64-.88,1.26.73,1,2.1.57,3.13-1.51,3.44-.15,6.47,1,9.62.51,1.39,2.14,3.54-.14,4.24-2.06.64-2.37-1.92-2.7-3.42-1.13-5-4-6.47-8.85-5a10.54,10.54,0,0,1-11.07-2.43c-2.63-2.43-6.35-2.82-9.77-3.38-2.84-.46-4.29,1.4-4.56,4.09-.38,3.83.58,7.6.75,11.36.52,11.59,4.81,23.66-3.29,34.49-.64.85-.57,2.22-.83,3.35Zm21.45-95.75c.3,2.1.48,4.43,1,6.68a2.62,2.62,0,0,0,2.9,2.21c1.68-.19,2-1.56,2.13-2.93a16.21,16.21,0,0,0-1.3-6.81c-.76-2.19-.42-6.16-3.57-5.55C1217.2,585,1219.43,588.55,1218.79,590.9Zm-24.6-168.53c-2.26,1.93-2.93,3.77-1.86,6,.3.63,1.12,1.11,1.61.56C1195.56,427.12,1195.13,425.05,1194.19,422.37Zm2.43,15.1c-.19-1.29-.38-2.83-2.07-2.86-1.26,0-1.29,1.32-1.26,2.31,0,1.18.23,2.49,1.68,2.63C1196.25,439.68,1196.53,438.59,1196.62,437.47ZM1200,630.86c1.18-1.52,1.09-2.7,0-4.3C1198.93,628.17,1198.9,629.35,1200,630.86Zm-4,36.56c0-.7-.16-1.31-.93-1.38a1.17,1.17,0,0,0-1.28,1.12c-.11.69.14,1.31.91,1.38S1195.84,668.09,1196,667.42Zm-5.57-36c.18-.24.51-.48.5-.71s-.4-.39-.62-.58c-.18.24-.52.48-.5.71S1190.21,631.22,1190.44,631.41Z" transform="translate(-736.41 -369.35)" style="fill:#600102"/><path d="M890.86,486a27.47,27.47,0,0,0,2.55-7.5c1.12-5.93,1-6.15-5.32-5.69l0,0c0-7.81.07-15.62,0-23.42-.05-4.06.88-7.18,5.36-8.31a4.07,4.07,0,0,0,3.33-4.37c-.09-2.45-1.66-3.45-3.85-3.82-2.49-.41-5.26-.66-5.34-4-.08-3.63,3-3.89,5.51-4.61a8.29,8.29,0,0,1,6.19,4.41c-2.12.16-1.63,1.37-.59,2.09s2.74,2.15,2.85-.85c7,2.61,12.55,7.48,18.66,11.44q46.38,30.1,92.52,60.61c9.44,6.21,18.76,12.62,28.13,18.93-3.92,0-7.58-.58-10.52-3.59-1-1-2.52-2.2-4-1-1.67,1.33-.69,3,.15,4.49a7.46,7.46,0,0,1,1.18,5.24c-2.27,11.75-2.11,23.67-2.51,35.56-.24,6.9,2.64,11.57,8.18,15.37,3,2.05,7.16,3.26,7.75,7.81A73.37,73.37,0,0,1,1025,574.29l-1.36-.78-1.07-.86c-2.25-5.91-6.38-8.78-12.81-8l-82.9-54.31q-16.81-11-33.62-22C892.33,487.74,891.22,487.22,890.86,486Z" transform="translate(-736.41 -369.35)" style="fill:#7b1416"/><path d="M1177.45,376.93c1.63.86,3.28,1.8,5.19,1.51,2.47-.37,4.33-.19,4.34,3,0,2.48-.43,4.3-3.54,4.09a2.72,2.72,0,0,0-3.13,1.94c-.37,1.46.87,2,1.89,2.55,2.1,1.09,2.49,2.94,2.48,5.05a99.19,99.19,0,0,0,.77,15.36c2.88-4.89,0-11.16,5.13-16.35.11,7.93,2,14.88-1.72,21.89-4.36,8.3-3.85,17.1-.31,25.52a31.61,31.61,0,0,1,2.34,14.58c-1.9,30.72-2.07,61.47-1.76,92.23a18,18,0,0,0,.47,4.46c4.09,15.83,3.59,32,3.43,48.11a14.45,14.45,0,0,1-1.69-3c-3.68-13.39-3.24-27.58-8.26-40.77-1.91-5-1.4-11-3.29-16-2.48-6.62-3.14-13.55-5-20.23-1.51-5.44-.43-11.87-5.49-16.12q-4.44-21.18-8.87-42.36c-1.18-5.68-2.29-11.37-3.45-17.06-1-4.83-3.17-5.83-7.35-3.18-4.34,2.75-8.56,5.69-12.84,8.54l-1.86-.16c-.84-.77-1.54-.28-2.23.28l-.19,0c-2.17.8-4.39,1.49-6.5,2.43-3.23,1.45-4.64.05-5.22-3a8.24,8.24,0,0,1,.9-6.24c.88-1.39.74-2.66.37-4.23-1.21-5.18-2.19-10.42,1.2-15.29a2.52,2.52,0,0,0-.35-3.21c-1.77-2.26-1.78-4.93-1.8-7.59a1.91,1.91,0,0,1,2.05-1c1.4,2.11,3.2,1.72,4.53.26s4.54-1.94,2.61-5c4.81-5.11,11-8.35,16.92-11.79,9.41-5.46,17.73-12.62,27.61-17.29l2.24-1.69ZM1180,513a47.1,47.1,0,0,0-.51,15.74c.15,1.12.6,2.41,2.09,2.3,1-.08,1.23-1.08,1.28-1.9C1183.17,523.59,1183.43,518,1180,513Z" transform="translate(-736.41 -369.35)" style="fill:#6a0304"/><path d="M1041,584.71c-.59-4.55-4.76-5.76-7.75-7.81-5.53-3.8-8.41-8.47-8.18-15.37.41-11.89.25-23.81,2.51-35.56a7.41,7.41,0,0,0-1.18-5.24c-.84-1.45-1.82-3.16-.15-4.49,1.46-1.16,3,0,4,1,2.94,3,6.6,3.62,10.53,3.59a381.08,381.08,0,0,1,35.68,23.29c4.08,3.06,9.15,4.66,12.6,8.63.22,2.67,2.23,3.76,4.19,5.07,5.32,3.54,10.53,7.26,15.78,10.9.49,2.22,2.36,1.8,3.89,2l2.07,2c-.74,3.28-3.3,3.81-6.07,4.12-1.16.12-2.46.37-2.75,1.73a2.51,2.51,0,0,0,2.12,3c6.94,1.39,6.87,6.49,6.73,11.89-.15,5.65-.06,11.31.09,17,.05,1.9,0,4.35,3.08,4,1.36-.16,2.47-.15,2.26,1.59a2.48,2.48,0,0,1-2.84,2.23c-3.46-.19-4.41-2.69-4.49-5.54-.17-6.74-.09-13.48-.17-20.22a19.59,19.59,0,0,0-.14-2c-.15-1.37-.06-3.15-2-3-1.59.1-1.65,1.94-1.66,3.22-.09,8-.54,16,.36,23.94.48,4.32,2.35,7.51,6.56,9.19,1.64.65,3.9,1.37,3.67,3.55-.3,2.69-2.93,2.13-4.79,2.49-4.56-3.57-10.66-4.61-14.73-9a12.7,12.7,0,0,0-11.23-4.08,2.86,2.86,0,0,1-.86-.26c.23-1.39.18-2.86-1.2-3.52-4.25-2-7.53-5.48-11.6-7.72-9.21-5.05-17.64-11.26-26.12-17.38-2.55-1.84-5-3.26-8.16-3.05Z" transform="translate(-736.41 -369.35)" style="fill:#6a0304"/><path d="M1198.86,686.51c.26-1.13.19-2.5.83-3.35,8.1-10.83,3.81-22.9,3.29-34.49-.17-3.76-1.13-7.53-.75-11.36.27-2.69,1.72-4.55,4.56-4.09,3.42.56,7.14.95,9.77,3.38a10.54,10.54,0,0,0,11.07,2.43c4.8-1.47,7.72,0,8.85,5,.33,1.5.64,4.06,2.7,3.42,2.28-.7.65-2.85.14-4.24-1.14-3.15-2.5-6.18-1-9.62.45-1,.69-2.4-.57-3.13-1-.61-1.79.41-2.64.88-4.64,2.58-7,1.51-6.9-3.88.12-9.07-1.53-18.22,1.48-27.24.81-2.42-.15-5.58-.75-8.31-1.79-8-1.44-16.62-6-23.95-.9-1.43-.34-2.89-.22-4.36.5-5.83.53-11.55-1.48-17.23a81.67,81.67,0,0,1-4.2-28.32c4.84,5.05,3.87,11.87,5.17,17.9,3.3,15.42,5.79,31,9.18,46.41,2.7,12.24,6.11,24.28,7.63,36.86,1.68,14,5.7,27.66,8.39,41.53,3.9,20,9.34,39.77,12.14,60,.34,2.43.94,5.28-1.74,6.75-2.44,1.34-3.72-1.25-5.5-2.32-13-7.85-22.94-20-36.61-26.9-3.84-1.95-7.68-3.9-11.58-5.74a9.54,9.54,0,0,1-4.79-4.17l.19-.33c.08-.09.25-.21.23-.26a6,6,0,0,0-.34-.59C1199.21,687,1199,686.75,1198.86,686.51Z" transform="translate(-736.41 -369.35)" style="fill:#500101"/><path d="M1077.64,441.52l2.06-.61c4.86.38,1.68,3.27.88,4.2-2.72,3.21-2,6.25-1.48,10.08,1.14,8,3,16.28-.35,24.39,1.73.95,3.55.5,5.33.36,2-.15,4.12-1.8,6.08.22a9,9,0,0,1-4.34,2.66l-1.71,1.51C1073.72,491.19,1063.3,498,1053,505c-2.68,1.81-5,2-7.76.19-9.39-6.27-18.86-12.43-28.34-18.56-3-1.94-3-3.42,0-5.4q27.48-17.6,54.83-35.38c2.08-1.35,4-2.93,6-4.39Z" transform="translate(-736.41 -369.35)" style="fill:#8a2629"/><path d="M1090.16,480.16c-2-2-4-.37-6.08-.22-1.78.14-3.6.59-5.33-.36,3.3-8.11,1.49-16.37.35-24.39-.54-3.83-1.24-6.87,1.48-10.08.8-.93,4-3.82-.88-4.2,9.08-7.51,19.48-13.06,29.24-19.56,4-2.65,7.67-5.81,12.16-7.66,0,2.66,0,5.33,1.81,7.59a2.52,2.52,0,0,1,.35,3.21c-3.39,4.87-2.41,10.11-1.2,15.29.37,1.57.51,2.84-.37,4.23a8.24,8.24,0,0,0-.9,6.24c.58,3.05,2,4.45,5.22,3,2.11-.94,4.33-1.63,6.5-2.43-3,4.26-8.38,5.56-11.49,9.63C1110.93,467.33,1100.77,474.1,1090.16,480.16Z" transform="translate(-736.41 -369.35)" style="fill:#7b1416"/><path d="M1109.11,568.76c-5.25-3.64-10.45-7.36-15.77-10.9-2-1.31-4-2.4-4.2-5.07a10.88,10.88,0,0,1,6,2c16.83,11.28,33.81,22.35,50.52,33.81,10.39,7.12,21.75,12.73,31.55,20.77,2.84,2.33,7.21,2.5,9.27,6.28.53,1,2,1.13,3.18.44,1.59-1,1.33-2.55,1-4q-1.93-9.27-3.94-18.52c-4.92-22.7-9.78-45.41-13.8-68.29-1.19-6.84-4.41-13.32-3.69-20.51,5.06,4.25,4,10.68,5.49,16.12,1.86,6.68,2.52,13.61,5,20.23,1.89,5,1.38,11,3.29,16,5,13.19,4.58,27.38,8.26,40.77a14.45,14.45,0,0,0,1.69,3c0,2.69,0,5.47,1.47,7.73,3.53,5.33,1,9.83-1.59,14.37-1.2,2.13-3.14,2.47-4.24.31-4.17-8.24-13.44-9.86-19.61-15.49-1.94-1.77-4.4-3-6.52-4.54-1.64-1.23-3.26-2.43-5.43-1.79s-3.16.18-2.92-2.26c.15-1.54-1-2.45-2.22-3-8.75-4.19-16-10.64-23.89-16.06a97.27,97.27,0,0,0-13-7.31l-2.07-2A5.53,5.53,0,0,0,1109.11,568.76Z" transform="translate(-736.41 -369.35)" style="fill:#500101"/><path d="M1089.06,616.82a12.71,12.71,0,0,1,11.23,4.08c4.07,4.34,10.17,5.38,14.72,9,4.31,5.52,11.29,7.15,16.52,11.35,2.48,2,5.16,3.64,5.62,7.14-6.54-3.89-13.44-7.29-19.54-11.77C1108.28,629.7,1097.77,624.55,1089.06,616.82Z" transform="translate(-736.41 -369.35)" style="fill:#500101"/><path d="M1041.11,584.89c3.19-.21,5.62,1.21,8.17,3.05,8.48,6.12,16.91,12.33,26.11,17.38,4.07,2.24,7.36,5.69,11.6,7.72,1.38.66,1.43,2.13,1.2,3.52-10.67-6.63-21.8-12.53-31.83-20.21-3.54-2.71-7.48-4.91-11.28-7.27C1043.37,588,1041.56,587.12,1041.11,584.89Z" transform="translate(-736.41 -369.35)" style="fill:#500101"/><path d="M1121,460.45c3.11-4.07,8.54-5.37,11.49-9.63l.2,0,2.22-.28,1.86.16C1132.61,455.68,1127.89,459.8,1121,460.45Z" transform="translate(-736.41 -369.35)" style="fill:#500101"/><path d="M1009.8,564.69c6.43-.82,10.56,2,12.81,8C1017.61,571.15,1014.05,567.37,1009.8,564.69Z" transform="translate(-736.41 -369.35)" style="fill:#6a0304"/><path d="M1130.3,407.91c1.93,3.09-1.36,3.66-2.61,5s-3.13,1.85-4.53-.26l.72-1.09-.13.07,1.92-.85,2.21-1.68Z" transform="translate(-736.41 -369.35)" style="fill:#7b1416"/><path d="M1173.16,670.81a8.89,8.89,0,0,1,4.85,3.77A6,6,0,0,1,1173.16,670.81Z" transform="translate(-736.41 -369.35)" style="fill:#500101"/><path d="M1177.07,377.14l-2.24,1.69A2.44,2.44,0,0,1,1177.07,377.14Z" transform="translate(-736.41 -369.35)" style="fill:#600102"/><path d="M1127.88,409.13l-2.21,1.68A2.53,2.53,0,0,1,1127.88,409.13Z" transform="translate(-736.41 -369.35)" style="fill:#6a0304"/><path d="M1084.11,484.33l1.71-1.51A2.17,2.17,0,0,1,1084.11,484.33Z" transform="translate(-736.41 -369.35)" style="fill:#7b1416"/><path d="M1165.81,666.81l1.11.9Z" transform="translate(-736.41 -369.35)" style="fill:#500101"/><path d="M1023.68,573.51l1.36.78Z" transform="translate(-736.41 -369.35)" style="fill:#6a0304"/><path d="M1184.91,678.83l2.15,1.65A2.58,2.58,0,0,1,1184.91,678.83Z" transform="translate(-736.41 -369.35)" style="fill:#500101"/><path d="M1197.34,686.65l1.52-.14c.17.24.35.48.53.71a2.76,2.76,0,0,0,.11.85l-.19.33Z" transform="translate(-736.41 -369.35)" style="fill:#500101"/><path d="M1077.64,441.52l.1-.1Z" transform="translate(-736.41 -369.35)" style="fill:#7b1416"/><path d="M1123.75,411.66l.13-.07Z" transform="translate(-736.41 -369.35)" style="fill:#6a0304"/><path d="M1179.59,675.94l.23.21Z" transform="translate(-736.41 -369.35)" style="fill:#500101"/><path d="M1195.52,685.93l.31.29Z" transform="translate(-736.41 -369.35)" style="fill:#500101"/><path d="M888.09,472.78c-.36.65-.54,1.47-1.47,1.57-.08,0-.27-.21-.25-.29.22-.92,1.07-1,1.76-1.25Z" transform="translate(-736.41 -369.35)" style="fill:#7b1416"/><path d="M1218.79,590.9c.64-2.35-1.59-5.88,1.15-6.4,3.15-.61,2.81,3.36,3.57,5.55a16.21,16.21,0,0,1,1.3,6.81c-.12,1.37-.45,2.74-2.13,2.93a2.62,2.62,0,0,1-2.9-2.21C1219.27,595.33,1219.09,593,1218.79,590.9Z" transform="translate(-736.41 -369.35)" style="fill:#500101"/><path d="M1194.19,422.37c.94,2.68,1.37,4.75-.25,6.58-.49.55-1.31.07-1.61-.56C1191.26,426.14,1191.93,424.3,1194.19,422.37Z" transform="translate(-736.41 -369.35)" style="fill:#6a0304"/><path d="M1196.62,437.47c-.09,1.12-.37,2.21-1.65,2.08-1.45-.14-1.65-1.45-1.68-2.63,0-1,0-2.32,1.26-2.31C1196.24,434.64,1196.43,436.18,1196.62,437.47Z" transform="translate(-736.41 -369.35)" style="fill:#6a0304"/><path d="M1200,630.86c-1.11-1.51-1.08-2.69,0-4.3C1201.1,628.16,1201.19,629.34,1200,630.86Z" transform="translate(-736.41 -369.35)" style="fill:#500101"/><path d="M1196,667.42c-.17.67-.57,1.18-1.3,1.12s-1-.69-.91-1.38a1.17,1.17,0,0,1,1.28-1.12C1195.85,666.11,1196.05,666.72,1196,667.42Z" transform="translate(-736.41 -369.35)" style="fill:#500101"/><path d="M1190.44,631.41c-.23-.19-.61-.38-.62-.58s.32-.47.5-.71c.22.19.61.37.62.58S1190.62,631.17,1190.44,631.41Z" transform="translate(-736.41 -369.35)" style="fill:#500101"/><path d="M901.55,429.89c-.11,3-1.91,1.51-2.85.85s-1.53-1.93.59-2.09Z" transform="translate(-736.41 -369.35)" style="fill:#8a2629"/><path d="M1180,513c3.45,5,3.19,10.57,2.86,16.14,0,.82-.32,1.82-1.28,1.9-1.49.11-1.94-1.18-2.09-2.3A47.1,47.1,0,0,1,1180,513Z" transform="translate(-736.41 -369.35)" style="fill:#600102"/><path d="M1134.93,450.52l-2.22.28C1133.39,450.24,1134.09,449.75,1134.93,450.52Z" transform="translate(-736.41 -369.35)" style="fill:#7b1416"/><path d="M1109.11,568.76a5.53,5.53,0,0,1,3.89,2C1111.47,570.56,1109.61,571,1109.11,568.76Z" transform="translate(-736.41 -369.35)" style="fill:#600102"/><path d="M1199.5,688.07a2.76,2.76,0,0,1-.11-.85,6,6,0,0,1,.34.59C1199.75,687.86,1199.58,688,1199.5,688.07Z" transform="translate(-736.41 -369.35)" style="fill:#600102"/></svg>