<svg xmlns="http://www.w3.org/2000/svg" fill="none" viewBox="0 0 850 263" height="263" width="850">
<path fill="white" d="M328.312 161.795H295.702L289.866 179.832H267.647L302.224 86.4013H321.665L356.397 179.832H334.179L328.312 161.795ZM322.851 144.975L311.991 111.678L301.194 144.975H322.851Z"></path>
<path fill="white" d="M423.209 110.399V179.832H404.392L403.799 172.53C401.646 175.244 398.9 177.429 395.779 178.927C392.409 180.456 388.758 181.205 385.075 181.142C378.772 181.486 372.624 179.208 368.068 174.839C363.949 170.657 361.92 164.135 361.92 155.335V110.399H381.955V155.46C381.736 158.081 382.641 160.671 384.42 162.606C386.292 164.26 388.758 165.103 391.254 164.947C396.029 165.415 400.647 163.137 403.112 159.049V110.399H423.209Z"></path>
<path fill="white" d="M472.327 164.229V179.302C468.551 180.55 464.619 181.143 460.656 181.112C455.039 181.486 449.516 179.676 445.209 176.056C441.652 172.686 439.842 167.35 439.842 160.079V124.972H430.355V110.399H439.842V93.2045H459.876V110.399H471.485V124.972H459.876V157.645C459.626 159.642 460.219 161.67 461.468 163.231C463.059 164.385 464.994 164.885 466.929 164.697C468.739 164.697 470.548 164.541 472.327 164.229Z"></path>
<path fill="white" d="M480.753 126.252C483.218 121.04 487.181 116.672 492.112 113.676C503.283 107.591 516.764 107.591 527.967 113.676C532.929 116.64 536.861 121.009 539.357 126.221C542.041 131.931 543.352 138.172 543.227 144.476V145.818C543.352 152.121 542.01 158.331 539.357 164.042C536.892 169.254 532.929 173.622 527.998 176.587C516.827 182.61 503.346 182.61 492.143 176.587C487.181 173.622 483.218 169.285 480.753 164.073C478.069 158.363 476.758 152.121 476.883 145.818V144.476C476.758 138.172 478.1 131.962 480.753 126.252ZM500.007 159.767C502.129 163.262 506.029 165.228 510.117 164.947C514.143 165.228 518.013 163.231 520.103 159.736C522.381 155.461 523.442 150.655 523.224 145.818V144.476C523.442 139.639 522.35 134.865 520.103 130.589C518.013 127.063 514.112 125.004 509.993 125.284C505.936 125.004 502.066 127.063 500.007 130.589C497.76 134.865 496.668 139.67 496.886 144.476V145.818C496.668 150.655 497.729 155.492 500.007 159.767Z"></path>
<path fill="white" d="M612.348 155.304C612.41 160.048 611.069 164.697 608.51 168.692C605.92 172.624 602.3 175.807 598.056 177.835C587.633 182.609 575.556 182.141 565.539 176.556C560.733 173.591 556.926 169.222 554.617 164.073C552.121 158.362 550.872 152.184 550.997 145.943V144.351C550.872 138.11 552.121 131.9 554.617 126.189C556.926 121.04 560.702 116.671 565.508 113.676C570.844 110.493 576.992 108.932 583.233 109.12C588.476 109.026 593.687 110.149 598.399 112.427C602.674 114.549 606.263 117.857 608.666 121.976C611.225 126.47 612.473 131.588 612.348 136.768H593.531C593.624 133.741 592.595 130.808 590.691 128.498C588.663 126.283 585.761 125.097 582.765 125.284C578.927 124.91 575.213 126.938 573.497 130.402C571.655 134.802 570.813 139.576 571.031 144.351V145.943C570.782 150.748 571.655 155.523 573.497 159.954C575.307 163.387 579.051 165.353 582.89 164.916C585.698 165.072 588.444 164.136 590.598 162.326C592.564 160.516 593.624 157.957 593.562 155.304H612.348Z"></path>
<path fill="white" d="M623.364 126.252C625.829 121.04 629.792 116.672 634.723 113.676C645.895 107.591 659.407 107.591 670.578 113.676C675.54 116.64 679.472 121.009 681.969 126.221C684.652 131.931 685.963 138.172 685.838 144.476V145.818C685.963 152.121 684.621 158.331 681.969 164.042C679.503 169.254 675.54 173.622 670.61 176.587C659.438 182.61 645.957 182.61 634.754 176.587C629.792 173.622 625.829 169.285 623.364 164.073C620.68 158.363 619.369 152.121 619.494 145.818V144.476C619.369 138.172 620.68 131.931 623.364 126.252ZM642.618 159.767C644.74 163.262 648.641 165.228 652.729 164.947C656.754 165.228 660.624 163.231 662.715 159.736C664.993 155.461 666.054 150.655 665.835 145.818V144.476C666.054 139.639 664.961 134.865 662.715 130.589C660.624 127.063 656.723 125.004 652.604 125.284C648.547 125.004 644.678 127.063 642.618 130.589C640.371 134.865 639.279 139.67 639.497 144.476V145.818C639.248 150.655 640.34 155.492 642.618 159.767Z"></path>
<path fill="white" d="M757.019 81.2524V179.832H738.982L738.014 172.311C733.989 177.897 727.498 181.205 720.633 181.111C715.421 181.236 710.304 179.645 706.06 176.587C701.847 173.372 698.633 169.066 696.791 164.104C694.576 158.3 693.515 152.152 693.608 145.942V144.6C693.484 138.266 694.576 131.931 696.791 126.002C698.633 121.04 701.847 116.734 706.06 113.551C710.366 110.524 715.515 108.963 720.758 109.119C726.999 108.995 732.959 111.741 736.922 116.578V81.2524H757.019ZM732.522 163.23C734.426 162.045 735.955 160.359 736.922 158.331V131.9C734.987 127.593 730.556 124.941 725.813 125.284C721.975 125.066 718.355 127.094 716.545 130.495C714.392 134.864 713.393 139.732 713.611 144.6V145.942C713.393 150.717 714.36 155.491 716.42 159.798C718.23 163.168 721.85 165.196 725.657 164.947C728.091 165.009 730.431 164.447 732.522 163.23Z"></path>
<path fill="white" d="M832.038 151.653H788.474C789.067 155.429 790.939 158.861 793.81 161.389C796.806 163.823 800.582 165.103 804.452 164.947C807.635 164.978 810.755 164.354 813.689 163.137C816.528 161.92 819.025 159.985 820.928 157.551L830.353 168.785C827.544 172.561 823.862 175.557 819.649 177.554C814.5 180.019 808.852 181.236 803.141 181.111C796.619 181.267 790.19 179.707 784.48 176.586C779.331 173.747 775.118 169.503 772.278 164.354C769.439 159.174 767.972 153.338 768.034 147.409V144.975C767.909 138.609 769.251 132.305 771.935 126.532C774.4 121.29 778.332 116.827 783.263 113.769C793.935 107.746 806.917 107.559 817.745 113.27C822.395 116.016 826.109 120.135 828.355 125.065C830.883 130.745 832.131 136.924 831.975 143.134L832.038 151.653ZM812.378 136.768C812.565 133.678 811.504 130.651 809.445 128.342C807.104 126.158 803.984 125.065 800.801 125.284C793.998 125.284 789.878 129.653 788.474 138.39H812.347L812.378 136.768Z"></path>
<path fill="white" d="M216.22 113.33V113.299C215.814 112.051 215.346 110.865 214.816 109.648C213.755 107.183 212.382 104.874 210.728 102.752C209.854 101.628 208.949 100.536 207.982 99.5061L206.577 98.0706C205.548 97.0721 204.455 96.1671 203.301 95.2309L149.907 53.4774C146.6 50.8873 142.98 48.7653 139.11 47.1738C137.456 46.4873 135.802 45.8631 134.086 45.3638C123.507 42.2121 112.211 42.2121 101.632 45.3638C99.9468 45.8943 98.2929 46.4873 96.6389 47.1738C92.7694 48.7653 89.1495 50.8873 85.8417 53.4774L32.4483 95.2309C31.3249 96.1671 30.2015 97.0721 29.2341 98.0394C28.9221 98.3515 28.5788 98.6636 28.2668 99.0068L27.705 99.5997C27.2682 100.037 26.8625 100.505 26.5192 100.91C24.9589 102.689 23.5547 104.655 22.4 106.715C22.3688 106.777 22.3376 106.871 22.3064 106.933C21.7759 107.901 21.2766 108.868 20.7773 109.96C20.5589 110.428 20.3717 110.896 20.2156 111.364C19.9348 111.988 19.7163 112.644 19.5291 113.33C19.2794 114.173 19.0298 115.047 18.7801 115.92C18.7801 115.983 18.7489 116.076 18.7489 116.139C18.5617 117.013 18.3745 117.918 18.2809 118.76C18.0936 120.164 18 121.631 18 123.067V140.948C18.4993 151.495 23.6483 161.263 32.0739 167.629L38.0654 173.183C40.1874 175.149 42.9335 176.304 45.8357 176.398C46.6158 178.301 47.8953 179.986 49.518 181.266L85.6545 209.538C94.8914 216.497 106.157 220.148 117.703 219.992C129.249 220.148 140.514 216.466 149.72 209.538L157.553 203.422C160.455 201.144 162.14 197.68 162.14 193.998V179.768C162.047 178.488 161.859 177.209 161.516 175.961C161.391 175.586 161.235 175.212 161.079 174.837C160.268 173.058 159.051 171.529 157.522 170.312L107.967 131.555L117.859 123.816L181.425 173.558C185.794 176.803 191.786 176.803 196.155 173.558L203.301 167.91C212.163 161.387 217.468 151.121 217.718 140.136V123.067C217.718 119.759 217.219 116.482 216.22 113.33ZM149.97 178.395L142.98 183.887C135.678 189.286 126.784 192.157 117.703 191.969C108.591 192.157 99.6971 189.317 92.3949 183.887L57.0698 156.207L88.8063 131.43C89.1183 131.149 89.6176 131.149 89.9297 131.43L149.97 178.395ZM196.529 142.258L188.79 148.343L119.014 93.7954C118.702 93.5146 118.265 93.3898 117.859 93.3898C117.453 93.3898 117.016 93.5146 116.704 93.7954L46.9591 148.343L39.22 142.258C33.0413 137.858 29.2653 130.868 28.9845 123.285C29.0781 116.669 31.8866 110.397 36.786 105.966C36.8172 105.966 36.8172 105.966 36.8172 105.935C37.1604 105.591 37.5973 105.217 37.9406 104.905C38.3463 104.561 38.7519 104.218 39.22 103.844L92.5822 62.1214C96.1084 59.4065 100.103 57.3469 104.347 56.0363C105.408 55.693 106.5 55.3809 107.623 55.1313C117.703 52.8221 128.282 54.0079 137.581 58.564C139.547 59.5937 141.419 60.7796 143.167 62.1214L196.529 103.875C196.997 104.218 197.403 104.561 197.746 104.842C198.152 105.217 198.557 105.591 198.932 105.966C203.894 110.428 206.733 116.763 206.765 123.41C206.421 130.93 202.645 137.858 196.529 142.258Z"></path>
</svg>
