<svg xmlns="http://www.w3.org/2000/svg" fill="none" viewBox="0 0 850 263" height="263" width="850">
<g clip-path="url(#clip0_384_1311)">
<path fill="white" d="M48 92.1016L87.0815 38.4863H48V30.9536H96.4752V38.4863L57.8368 92.1016H96.4752V99.6343H48V92.1016Z"></path>
<path fill="white" d="M115.44 65.6041C115.44 46.2849 124.922 29.3585 145.394 29.3585C168.258 29.3585 176.145 45.1329 176.145 66.8448V67.6424H124.125C124.479 82.2647 130.062 94.4943 146.634 94.4943C156.117 94.8488 164.004 88.5568 166.397 79.5175H174.638C171.891 94.1398 161.611 102.027 145.482 102.027C124.125 101.584 115.44 82.9737 115.44 65.6041ZM167.549 60.1097C167.549 45.9304 160.459 36.4481 145.837 36.4481C131.657 36.4481 124.568 47.5256 124.568 60.1097H167.549Z"></path>
<path fill="white" d="M202.642 30.9536H210.529V41.2336H210.884C214.872 33.3464 223.468 28.2064 232.153 29.004C251.472 29.004 260.954 47.1711 260.954 64.5407C260.954 81.9102 251.117 101.229 232.153 101.229C221.873 101.229 216.378 96.8871 210.884 88.6454H210.529V125.334H202.642V30.9536ZM252.713 64.8952C252.713 52.3111 246.775 36.5367 232.241 36.5367C216.821 36.5367 210.175 51.5135 210.175 65.3383C210.175 79.163 217.265 94.1398 232.241 94.1398C247.218 94.1398 252.713 77.4792 252.713 64.8952Z"></path>
<path fill="white" d="M286.654 30.9536H294.541V41.2336H294.896C298.884 33.3464 307.48 28.2064 316.608 29.004C335.927 29.004 345.409 47.1711 345.409 64.5407C345.409 81.9102 335.572 101.584 316.608 101.584C306.328 101.584 300.833 97.2415 295.339 88.9999H294.984V125.6H287.097L286.654 30.9536ZM336.725 64.8952C336.725 52.3111 330.787 36.5367 316.253 36.5367C300.833 36.5367 294.187 51.5135 294.187 65.3383C294.187 79.163 301.276 94.1398 316.253 94.1398C331.23 94.1398 336.725 77.4792 336.725 64.8952Z"></path>
<path fill="white" d="M367.476 65.6041C367.476 46.2849 376.958 29.3585 397.429 29.3585C420.293 29.3585 428.181 45.1329 428.181 66.8448V67.6424H376.161C376.515 82.2647 381.655 94.4943 398.67 94.4943C408.152 94.8488 416.04 88.5568 418.432 79.5175H426.674C423.927 94.1398 413.647 102.027 397.518 102.027C376.161 101.584 367.476 82.9737 367.476 65.6041ZM419.584 60.1097C419.584 45.9304 412.495 36.4481 397.872 36.4481C383.693 36.4481 376.958 47.5256 376.958 60.1097H419.584Z"></path>
<path fill="white" d="M455.83 1H463.717V99.6343H455.83V1Z"></path>
<path fill="white" d="M493.316 1H503.951V12.8751H493.316V1ZM495.266 30.9536H503.153V99.5457H495.266V30.9536Z"></path>
<path fill="white" d="M535.145 30.9536H543.032V41.2336L543.387 41.588C547.375 33.7008 555.616 29.004 564.301 29.3585C580.43 29.3585 587.963 41.5881 587.963 57.008V99.6343H580.076V55.5014C580.076 44.4239 573.34 36.5367 562.706 36.5367C550.122 36.5367 543.387 48.4118 543.387 60.1983V99.6343H535.5L535.145 30.9536Z"></path>
<path fill="white" d="M662.935 65.2496C662.935 46.2849 674.367 29.004 694.13 29.004C713.892 29.004 725.324 46.3735 725.324 65.2496C725.324 84.1257 713.892 101.495 694.13 101.495C674.367 101.495 662.935 84.2144 662.935 65.2496ZM716.905 65.2496C716.905 51.868 709.018 36.4481 694.396 36.4481C679.773 36.4481 671.886 51.868 671.886 65.2496C671.886 78.6313 679.773 94.0512 694.396 94.0512C709.018 94.0512 716.905 78.6313 716.905 65.2496Z"></path>
<path fill="white" d="M746.15 79.0744H754.391C754.391 91.6585 763.874 94.4943 775.306 94.4943C783.548 94.4943 791.435 90.5064 791.435 80.6696C791.435 60.9073 749.251 73.1368 749.251 47.9687C749.251 34.5871 762.279 29.004 773.711 29.004C787.092 29.004 797.372 34.144 798.967 47.1711H791.08C789.928 38.9294 783.193 35.7391 774.154 35.7391C767.064 35.7391 758.379 38.4863 758.379 47.1711C758.379 63.7431 800.563 53.9063 800.563 79.5175C800.563 96.0895 787.979 101.229 773.711 101.229C758.379 101.584 746.15 95.6464 746.15 79.0744Z"></path>
<path fill="white" d="M604.889 105.838H656.2V112.573H604.889V105.838Z"></path>
<path fill="white" d="M257.196 166C257.111 167.162 257.021 168.323 256.941 169.485C256.694 173.072 256.588 176.661 256.723 180.258C256.818 182.782 256.961 185.302 257.212 187.815C257.499 190.682 257.914 193.532 258.421 196.368C258.46 196.586 258.531 196.797 258.602 197.072C260.117 196.976 261.573 196.692 263.032 196.455C264.468 196.221 265.897 195.936 267.32 195.631C268.775 195.32 270.223 194.978 271.664 194.61C273.105 194.243 274.541 193.848 275.966 193.424C277.392 193 278.809 192.546 280.217 192.067C281.594 191.597 282.961 191.097 284.32 190.576C285.704 190.044 287.072 189.47 288.469 188.905C288.75 189.157 288.781 189.491 288.877 189.787C290.111 193.57 291.34 197.354 292.57 201.138C293.641 204.43 294.711 207.722 295.78 211.014C295.878 211.318 295.965 211.626 296.073 211.989C295.763 212.079 295.492 212.173 295.214 212.236C285.759 214.384 276.744 217.714 268.184 222.271C267.87 222.438 267.557 222.608 267.248 222.784C267.196 222.813 267.164 222.879 267.095 222.96C267.066 223.276 267.284 223.538 267.42 223.82C270.24 229.666 273.565 235.211 277.374 240.465C279.295 243.115 281.333 245.671 283.483 248.138C283.673 248.356 283.852 248.582 284.019 248.782C284.003 248.856 284 248.887 283.989 248.914C283.976 248.943 283.961 248.976 283.937 248.994C283.734 249.155 283.533 249.319 283.324 249.471C277.041 254.034 270.757 258.597 264.425 263.195C263.734 262.207 263.194 261.177 262.561 260.208C261.943 259.259 261.335 258.302 260.703 257.362C260.052 256.395 259.389 255.437 258.709 254.49C258.048 253.57 257.371 252.661 256.679 251.763C255.968 250.84 255.242 249.928 254.503 249.026C253.784 248.15 253.052 247.285 252.306 246.432C251.538 245.555 250.757 244.689 249.962 243.837C249.189 243.008 248.401 242.193 247.602 241.39C246.782 240.566 245.94 239.764 245.119 238.964C243.635 239.934 237.848 246.141 234.491 250.338C231.25 254.389 228.327 258.658 225.713 263.079C225.626 263.111 225.598 263.129 225.572 263.128C225.541 263.127 225.505 263.117 225.48 263.099C219.216 258.555 212.953 254.011 206.691 249.466C206.457 249.295 206.23 249.114 205.958 248.906C206.096 248.561 206.372 248.335 206.595 248.079C211.292 242.695 215.456 236.927 218.99 230.717C220.237 228.524 221.365 226.264 222.542 224.031C222.707 223.718 222.84 223.388 222.986 223.07C222.782 222.711 222.417 222.621 222.112 222.458C216.108 219.24 209.856 216.609 203.358 214.56C200.519 213.664 197.65 212.883 194.746 212.225C194.5 212.169 194.262 212.076 194 211.993C194.023 211.825 194.022 211.696 194.06 211.579C196.507 204.045 198.958 196.511 201.412 188.966C201.812 188.889 202.079 189.108 202.361 189.228C206.414 190.95 210.547 192.447 214.776 193.676C218.911 194.878 223.098 195.859 227.352 196.536C228.407 196.704 229.46 196.877 230.517 197.034C230.795 197.075 231.081 197.065 231.425 197.08C231.595 196.134 231.766 195.249 231.912 194.361C232.426 191.229 232.805 188.08 233.034 184.916C233.373 180.229 233.44 175.537 233.159 170.843C233.084 169.583 232.983 168.324 232.905 167.065C232.883 166.711 232.9 166.355 232.9 166H257.196Z" clip-rule="evenodd" fill-rule="evenodd"></path>
<path fill="white" d="M402.972 166C402.977 166.388 402.987 166.776 402.987 167.165C402.988 174.19 402.989 181.215 402.985 188.241C402.985 188.62 403.039 189.009 402.893 189.428C401.519 189.527 400.165 189.462 398.814 189.474C397.421 189.485 396.028 189.476 394.635 189.476H365.875C364.482 189.476 363.09 189.475 361.697 189.476C360.343 189.478 358.99 189.471 357.712 189.481C357.618 189.597 357.594 189.62 357.577 189.647C357.562 189.674 357.545 189.704 357.543 189.734C357.531 189.895 357.516 190.056 357.516 190.217C357.52 195.041 357.525 199.865 357.533 204.688C357.533 204.749 357.571 204.809 357.612 204.928C357.764 204.955 357.945 205.006 358.128 205.016C358.419 205.032 358.711 205.021 359.002 205.021C370.63 205.021 382.257 205.021 393.884 205.022C394.267 205.022 394.65 205.034 395.026 205.041C395.235 205.468 395.157 205.861 395.158 206.24C395.163 212.391 395.161 218.543 395.161 224.694C395.161 225.115 395.165 225.536 395.157 225.956C395.153 226.111 395.119 226.265 395.095 226.452C394.907 226.485 394.754 226.53 394.598 226.536C394.275 226.549 393.951 226.542 393.627 226.542C382.032 226.542 370.437 226.542 358.842 226.545C358.432 226.545 358.009 226.481 357.57 226.656C357.455 227.802 357.531 228.93 357.518 230.055C357.504 231.22 357.515 232.386 357.515 233.552V254.045C357.515 255.21 357.518 256.376 357.514 257.542C357.509 258.67 357.536 259.798 357.492 260.981C357.27 261.019 357.09 261.063 356.908 261.076C356.682 261.092 356.454 261.082 356.228 261.082C347.807 261.083 339.386 261.084 330.965 261.08C330.586 261.079 330.193 261.146 329.798 260.969C329.773 260.841 329.733 260.719 329.729 260.595C329.718 260.272 329.721 259.948 329.721 259.624C329.721 228.836 329.721 198.047 329.72 167.258C329.72 166.839 329.704 166.42 329.695 166H402.972Z" clip-rule="evenodd" fill-rule="evenodd"></path>
<path fill="white" d="M629.175 230.649C628.924 230.741 628.747 230.799 628.575 230.87C627.917 231.141 627.266 231.428 626.603 231.686C624.184 232.624 621.676 233.251 619.148 233.813C617.473 234.186 615.821 234.642 614.249 235.348C613.389 235.734 612.578 236.2 611.868 236.829C611.044 237.559 610.485 238.455 610.22 239.52C610.024 240.309 609.944 241.115 610.011 241.929C610.201 244.25 611.325 245.956 613.423 246.981C613.97 247.249 614.56 247.462 615.153 247.598C618.028 248.254 620.82 247.952 623.488 246.708C626.028 245.524 627.711 243.549 628.604 240.904C628.979 239.796 629.215 238.651 629.228 237.479C629.251 235.342 629.244 233.206 629.246 231.069C629.247 230.974 629.215 230.88 629.175 230.649ZM656.04 261.008C655.752 261.033 655.463 261.079 655.175 261.079C647.531 261.083 639.888 261.082 632.244 261.082H631.439C631.274 260.809 631.109 260.574 630.983 260.32C630.196 258.743 629.744 257.059 629.415 255.337C629.314 254.804 629.22 254.27 629.122 253.737C628.775 253.677 628.689 253.921 628.561 254.086C627.688 255.216 626.722 256.26 625.639 257.194C622.833 259.612 619.577 261.122 615.997 261.984C612.917 262.725 609.79 262.893 606.64 262.765C603.643 262.644 600.729 262.089 597.928 260.999C595.111 259.904 592.624 258.307 590.581 256.06C588.58 253.859 587.236 251.295 586.52 248.421C585.572 244.622 585.535 240.796 586.412 236.976C587.423 232.567 589.873 229.152 593.637 226.668C595.789 225.248 598.139 224.26 600.596 223.513C603.015 222.778 605.483 222.26 607.989 221.932C610.043 221.664 612.102 221.44 614.154 221.159C617.167 220.747 620.182 220.33 623.102 219.438C623.843 219.212 624.575 218.944 625.281 218.629C625.809 218.393 626.312 218.084 626.786 217.751C627.917 216.956 628.5 215.835 628.597 214.466C628.67 213.422 628.547 212.394 628.226 211.399C627.766 209.969 626.862 208.914 625.481 208.298C625.07 208.114 624.643 207.938 624.205 207.843C622.246 207.419 620.287 207.398 618.345 207.953C616.312 208.534 614.795 209.767 613.776 211.616C613.256 212.559 612.928 213.571 612.702 214.621C612.635 214.931 612.562 215.24 612.507 215.478C612.406 215.555 612.383 215.579 612.354 215.592C612.325 215.605 612.292 215.612 612.26 215.613C611.969 215.623 611.678 215.639 611.387 215.639C604.002 215.638 596.618 215.637 589.234 215.633C589.139 215.633 589.043 215.605 588.949 215.586C588.919 215.579 588.891 215.558 588.832 215.528C588.667 215.107 588.773 214.652 588.815 214.214C589.202 210.178 590.444 206.439 592.74 203.075C594.765 200.11 597.379 197.777 600.464 195.96C603.275 194.305 606.297 193.184 609.462 192.425C613.357 191.491 617.316 191.16 621.312 191.189C622.672 191.199 624.033 191.209 625.391 191.272C629.083 191.443 632.748 191.825 636.328 192.808C639.708 193.736 642.814 195.209 645.545 197.428C649.438 200.593 651.839 204.667 652.934 209.539C653.441 211.795 653.61 214.082 653.61 216.385C653.612 227.522 653.607 238.659 653.616 249.796C653.616 251.156 653.649 252.516 653.725 253.873C653.771 254.71 653.906 255.545 654.038 256.374C654.27 257.828 654.878 259.086 656.04 260.037V261.008Z" clip-rule="evenodd" fill-rule="evenodd"></path>
<path fill="white" d="M450.203 226.744C450.158 225.965 450.114 224.574 449.989 223.19C449.788 220.963 449.382 218.771 448.651 216.649C448.024 214.831 447.175 213.135 445.937 211.647C443.2 208.359 438.982 207.523 435.387 208.683C433.333 209.346 431.779 210.665 430.561 212.41C429.608 213.775 428.945 215.281 428.445 216.861C427.57 219.627 427.209 222.479 427.097 225.363C426.993 228.049 427.07 230.732 427.464 233.398C427.791 235.614 428.303 237.779 429.214 239.836C429.794 241.144 430.525 242.36 431.494 243.423C432.724 244.773 434.211 245.703 435.984 246.162C436.963 246.416 437.961 246.484 438.968 246.446C440.861 246.374 442.586 245.809 444.126 244.698C445.271 243.872 446.182 242.832 446.936 241.647C447.901 240.133 448.559 238.487 449.038 236.765C449.895 233.687 450.167 230.537 450.203 226.744ZM436.598 263.34C435.639 263.211 434.682 263.063 433.72 262.956C426.623 262.174 420.105 259.89 414.445 255.445C408.731 250.957 404.992 245.137 402.991 238.181C401.771 233.941 401.383 229.607 401.586 225.21C401.774 221.104 402.547 217.114 404.061 213.29C407.817 203.807 414.56 197.363 424.08 193.79C427.092 192.66 430.215 191.981 433.413 191.616C436.48 191.266 439.549 191.204 442.624 191.463C448.779 191.982 454.584 193.633 459.846 196.937C466.792 201.3 471.413 207.472 473.914 215.254C475.51 220.222 475.967 225.327 475.605 230.505C475.265 235.363 474.095 240.022 471.898 244.388C468.079 251.977 462.153 257.273 454.285 260.42C451.329 261.602 448.262 262.382 445.101 262.781C443.945 262.927 442.785 263.045 441.629 263.185C441.375 263.216 441.126 263.287 440.874 263.34H436.598Z" clip-rule="evenodd" fill-rule="evenodd"></path>
<path fill="white" d="M580.728 260.731C580.228 261.047 579.664 261.073 579.134 261.193C576.701 261.747 574.236 262.117 571.748 262.301C570.587 262.386 569.419 262.383 568.253 262.397C565.659 262.428 563.072 262.313 560.501 261.962C558.349 261.669 556.236 261.212 554.189 260.462C549.092 258.592 545.883 255.019 544.476 249.796C543.866 247.532 543.617 245.22 543.53 242.886C543.505 242.207 543.51 241.527 543.51 240.847C543.509 230.486 543.51 220.126 543.508 209.766C543.508 209.383 543.49 209 543.481 208.637C543.141 208.397 542.808 208.478 542.496 208.477C540.294 208.47 538.091 208.475 535.889 208.471C535.539 208.47 535.178 208.526 534.807 208.36C534.787 208.169 534.75 207.981 534.749 207.794C534.747 203.006 534.748 198.218 534.749 193.469C535.147 193.221 535.512 193.304 535.861 193.303C538.031 193.295 540.201 193.301 542.371 193.297C542.719 193.296 543.076 193.344 543.464 193.18C543.557 191.982 543.496 190.79 543.507 189.6C543.518 188.402 543.509 187.204 543.509 186.006V178.722C543.509 177.524 543.506 176.326 543.51 175.128C543.514 173.935 543.49 172.742 543.529 171.494C543.754 171.458 543.935 171.414 544.117 171.402C544.343 171.387 544.571 171.397 544.797 171.397C552.149 171.397 559.502 171.397 566.854 171.398C567.238 171.398 567.622 171.409 567.972 171.414C568.227 171.805 568.132 172.172 568.133 172.517C568.14 177.73 568.138 182.942 568.138 188.155C568.138 189.515 568.135 190.874 568.14 192.234C568.141 192.55 568.169 192.866 568.186 193.202C568.614 193.339 569.002 193.296 569.382 193.297C572.88 193.3 576.378 193.297 579.876 193.302C580.226 193.303 580.589 193.232 580.963 193.425C580.981 193.596 581.015 193.783 581.019 193.971C581.111 198.067 581.062 207.431 580.946 208.342C580.625 208.555 580.258 208.468 579.91 208.469C576.38 208.476 572.85 208.472 569.319 208.475C568.969 208.475 568.619 208.494 568.3 208.504C568.061 208.853 568.143 209.185 568.142 209.498C568.135 211.797 568.138 214.096 568.138 216.395C568.138 222.805 568.137 229.215 568.139 235.626C568.139 236.499 568.158 237.369 568.353 238.232C568.784 240.135 569.908 241.384 571.766 241.984C572.887 242.346 574.044 242.498 575.209 242.516C576.535 242.536 577.862 242.466 579.189 242.428C579.67 242.414 580.152 242.38 580.67 242.353C580.71 242.6 580.766 242.785 580.766 242.97C580.771 248.733 580.771 254.496 580.769 260.259C580.769 260.418 580.742 260.578 580.728 260.731Z" clip-rule="evenodd" fill-rule="evenodd"></path>
<path fill="white" d="M482.016 193.428C482.131 193.383 482.219 193.318 482.307 193.318C490.014 193.311 497.721 193.308 505.429 193.308C505.551 193.308 505.674 193.352 505.813 193.379C505.97 193.743 505.908 194.102 505.909 194.449C505.915 197.136 505.91 199.823 505.914 202.509C505.915 202.823 505.865 203.146 506.029 203.509C506.167 203.451 506.308 203.436 506.372 203.358C506.575 203.107 506.751 202.835 506.934 202.568C508.552 200.203 510.409 198.057 512.682 196.29C515.502 194.098 518.689 192.771 522.21 192.206C524.04 191.912 525.878 191.771 527.725 191.865C528.592 191.91 529.452 192.095 530.312 192.24C530.529 192.276 530.731 192.401 530.914 192.475C530.946 192.534 530.963 192.561 530.976 192.59C530.989 192.619 531.01 192.65 531.01 192.68C531.018 199.575 531.026 206.469 531.032 213.364C531.032 213.491 531.01 213.618 530.994 213.803C530.814 213.837 530.631 213.915 530.459 213.896C529.559 213.798 528.662 213.669 527.763 213.561C525.63 213.306 523.495 213.316 521.37 213.614C517.423 214.168 513.978 215.704 511.362 218.82C509.948 220.505 508.986 222.435 508.319 224.521C507.635 226.661 507.293 228.863 507.165 231.099C507.121 231.874 507.12 232.652 507.12 233.429C507.117 242.202 507.118 250.974 507.118 259.747V260.95C506.882 261.002 506.705 261.059 506.525 261.075C506.3 261.095 506.072 261.082 505.845 261.082C498.3 261.083 490.754 261.084 483.209 261.079C482.827 261.079 482.433 261.154 482.054 260.975C482.022 260.885 481.964 260.796 481.964 260.706C481.956 238.402 481.952 216.099 481.952 193.795C481.952 193.672 481.994 193.549 482.016 193.428Z" clip-rule="evenodd" fill-rule="evenodd"></path>
</g>
<defs>
<clipPath id="clip0_384_1311">
<rect fill="white" height="263" width="849.2"></rect>
</clipPath>
</defs>
</svg>
