<svg xmlns="http://www.w3.org/2000/svg" fill="none" viewBox="0 0 562 197" height="197" width="562">
<path fill="white" d="M274.161 97.3145V79.2784H259.198V61.1052H240.592V73.5795C240.592 77.3788 238.706 79.2784 234.93 79.2784H229.135V97.3145H239.514V125.925C239.514 140.707 247.874 148.439 264.319 148.439H274.161V130.403H267.287C262.163 130.403 259.198 127.554 259.198 122.671V97.3145H274.161ZM318.749 150.065C339.915 150.065 355.823 134.47 355.823 113.855C355.823 93.2443 339.912 77.6497 318.749 77.6497C297.583 77.6497 281.674 93.2443 281.674 113.855C281.674 134.47 297.586 150.065 318.749 150.065ZM318.749 130.945C309.044 130.945 301.896 123.621 301.896 113.855C301.896 104.093 309.044 96.7692 318.749 96.7692C328.454 96.7692 335.602 104.093 335.602 113.855C335.602 123.621 328.454 130.945 318.749 130.945ZM405.729 97.3145V79.2784H390.766V61.1052H372.16V73.5795C372.16 77.3788 370.274 79.2784 366.498 79.2784H360.702V97.3145H371.082V125.925C371.082 140.707 379.441 148.439 395.89 148.439H405.729V130.403H398.855C393.73 130.403 390.766 127.554 390.766 122.671V97.3145H405.729ZM450.317 150.065C471.483 150.065 487.391 134.47 487.391 113.855C487.391 93.2443 471.483 77.6497 450.317 77.6497C429.154 77.6497 413.246 93.2443 413.246 113.855C413.246 134.47 429.154 150.065 450.317 150.065ZM450.317 130.945C440.612 130.945 433.467 123.621 433.467 113.855C433.467 104.093 440.612 96.7692 450.317 96.7692C460.025 96.7692 467.17 104.093 467.17 113.855C467.17 123.621 460.025 130.945 450.317 130.945ZM521.297 148.439H528.308V130.403H524.128C519.678 130.403 517.117 127.962 517.117 123.621V50.8014H497.433V126.875C497.433 141.115 505.523 148.439 521.297 148.439ZM549.731 70.4627C556.742 70.4627 562 65.309 562 58.2557C562 51.3431 556.742 46.1895 549.731 46.1895C542.857 46.1895 537.599 51.3396 537.599 58.2557C537.599 65.309 542.857 70.4627 549.731 70.4627ZM539.889 148.439H559.573V79.2784H539.889V148.439Z"></path>
<path fill="white" d="M97.9215 0C152.002 0 195.843 43.9078 195.843 98.0708V98.9292C195.843 153.092 152.002 197 97.9215 197C43.8409 197 0 153.092 0 98.9292V98.0708C0 43.9078 43.8409 0 97.9215 0ZM58.5323 43.9629C59.1819 43.288 59.9276 42.713 60.7452 42.2567C61.8552 41.6763 63.1583 41.4828 64.2401 42.2462C65.4098 43.0799 66.0807 44.4554 66.5795 45.7746C67.2504 47.5616 67.6543 49.4472 67.9634 51.3257C68.3108 53.4891 68.5663 55.6663 68.7291 57.8514C68.9102 60.1514 68.9991 62.4579 69.088 64.7625C69.1129 65.4081 69.1378 66.0536 69.1647 66.6988C70.9912 62.8045 73.3235 59.0686 76.2599 55.9588C79.4844 52.5429 83.9909 49.6477 88.8487 50.9845C90.9141 51.5544 92.7019 52.7118 93.8611 54.5516C95.0623 56.4653 95.6068 58.7097 95.8843 60.933C96.4954 65.8404 95.8983 70.8534 95.2836 75.7326C95.2151 76.2787 95.1481 76.8247 95.0811 77.3704L95.0802 77.3781C94.8248 79.4592 94.5698 81.5368 94.2334 83.6056C93.696 86.8807 93.0602 90.1348 92.3261 93.3712C91.455 97.2127 90.4434 101.03 89.214 104.776C88.069 108.252 86.7412 111.727 84.9147 114.908C84.1209 116.279 83.2393 117.602 82.175 118.777C81.346 119.695 80.3696 120.55 79.2456 121.081C78.2262 121.58 77.08 121.758 75.9578 121.591C75.2297 121.476 74.5464 121.214 73.9061 120.863C73.7582 120.775 73.6094 120.687 73.4595 120.6C73.1282 120.392 72.8089 120.162 72.5016 119.92C71.0474 118.77 69.9023 117.31 68.8134 115.815C67.1836 113.578 66.2352 110.855 65.4836 108.217C64.6125 105.149 64.0048 102.018 63.4007 98.8942C63.3248 98.5062 63.2499 98.1178 63.1749 97.7293C62.8611 96.1031 62.547 94.4753 62.1643 92.8681C62.145 92.9135 62.1239 92.9581 62.101 93.0018C61.9184 94.0431 61.6901 95.0773 61.4512 96.1081C61.388 96.3825 61.2053 96.8574 60.9103 97.0086C60.2901 98.4775 59.5215 99.8791 58.6166 101.191C57.5418 102.767 56.2984 104.284 54.8231 105.494C53.6781 106.437 52.245 107.422 50.6995 107.411C49.1259 107.4 47.9948 106.324 47.3275 104.966C46.8006 103.886 46.4704 102.732 46.2491 101.554C45.9434 99.9053 45.7719 98.2346 45.7363 96.5583C45.6167 90.8699 46.8534 85.3022 48.0833 79.7655L48.0833 79.7653L48.0833 79.7651C48.4795 77.9813 48.875 76.2008 49.2242 74.4205C49.6384 72.3182 49.9552 70.1661 50.2717 68.0163L50.2717 68.0162L50.2717 68.0158L50.2718 68.0153L50.2719 68.0147C50.3928 67.1937 50.5136 66.373 50.6397 65.5555C51.1526 62.2698 51.7216 58.9806 52.5716 55.7653C53.383 52.7083 54.4227 49.6618 56.1017 46.9742C56.7909 45.8782 57.6067 44.8674 58.5323 43.9629ZM84.8376 134.383C85.074 135.741 85.1922 137.025 85.1922 138.076V138.072C85.1922 148.087 75.8384 156.952 64.5317 156.566C58.6869 156.182 54.0082 153.484 50.1093 150.402L50.1014 150.394C48.5467 148.855 46.6025 146.93 45.8241 144.622C45.0443 142.311 45.0443 139.613 45.0443 136.918C45.8241 126.516 54.0082 116.881 65.3114 117.655C68.2985 117.88 71.0148 119.178 73.4595 120.6C73.606 120.692 73.7548 120.78 73.9061 120.863C74.5039 121.218 75.0851 121.578 75.6495 121.927C76.5319 122.473 77.3735 122.994 78.1742 123.434C78.2768 123.485 78.3811 123.536 78.4868 123.587C79.9869 124.316 81.7602 125.178 82.8529 128.057C83.6063 129.546 84.1777 131.304 84.5671 133.029C84.5666 133.462 84.6753 133.926 84.8376 134.383ZM84.8376 134.383C84.7602 133.938 84.67 133.485 84.5671 133.029C84.5675 132.736 84.6179 132.458 84.7355 132.205C86.118 131.81 87.5228 131.478 88.9256 131.146L88.9263 131.145C89.4514 131.021 89.9762 130.897 90.4995 130.769C91.7886 130.453 93.0812 130.147 94.3738 129.879L95.6213 129.62L95.6239 129.62C98.6987 128.981 101.774 128.342 104.855 127.723C109.759 126.738 114.666 125.788 119.594 124.944C123.448 124.286 127.317 123.724 131.187 123.162C132.244 123.008 133.3 122.855 134.357 122.699C136.773 122.344 139.186 121.971 141.585 121.514C145.453 120.782 149.302 120.036 153.141 119.157C153.282 119.125 153.582 119.04 153.987 118.927C155.947 118.376 160.347 117.141 160.799 117.855C161.006 118.187 160.947 118.36 160.87 118.584C160.835 118.685 160.796 118.797 160.778 118.939C160.497 120.968 160.198 123.005 159.727 125.007C159.25 127.03 158.6 129.01 157.792 130.924C156.299 134.477 154.715 137.984 152.551 141.189C150.465 144.288 147.932 147.099 144.915 149.301C141.248 151.978 136.966 153.737 132.6 154.902C127.806 156.182 122.811 156.685 117.858 156.464C110.134 156.126 102.435 153.466 96.4356 148.527C94.999 147.345 93.731 146.033 92.5684 144.788C92.5059 144.721 92.4433 144.654 92.3807 144.587C92.2514 144.449 92.1219 144.311 91.9924 144.173C91.0088 143.123 90.0243 142.073 89.084 140.978C87.9143 139.61 86.7973 138.178 85.9192 136.595C85.8852 136.533 85.8494 136.469 85.8121 136.402L85.8106 136.399C85.5035 135.848 85.1004 135.123 84.8376 134.383ZM147.63 99.4708C149.074 85.2622 151.796 69.453 148.835 55.1845C148.379 52.9823 147.367 50.6922 145.137 49.1936C144.907 49.0391 144.669 48.8981 144.424 48.7715C144.433 48.6272 144.401 48.4832 144.332 48.3564C144.257 48.2183 144.15 48.1002 144.02 48.0116C142.9 47.2583 141.651 46.7192 140.335 46.4215C138.719 46.0733 137.033 45.9994 135.396 46.207C132.664 46.5447 130.152 47.6669 128.013 48.9861C122.78 52.2225 118.74 56.5846 115.073 60.9468C111.586 65.1341 108.315 69.4973 105.273 74.0191C101.23 79.9573 97.2085 85.92 93.9735 92.1889C91.866 96.2696 90.0887 100.48 89.0033 104.836C88.1533 108.248 87.4227 111.868 89.1614 115.248C92.0768 120.902 100.777 122.618 107.49 123.413C111.522 123.873 115.57 124.189 119.625 124.36C123.507 124.543 127.406 124.268 131.101 123.361C133.981 122.669 136.693 121.406 139.078 119.646C141.029 118.15 142.652 116.269 143.848 114.119C145.112 111.896 145.857 109.511 146.412 107.115C146.974 104.575 147.36 102.028 147.634 99.4708H147.63ZM119.731 121.64C120.047 121.661 120.521 121.676 119.731 121.64V121.64Z" clip-rule="evenodd" fill-rule="evenodd"></path>
</svg>
