<svg xmlns="http://www.w3.org/2000/svg" fill="none" viewBox="0 0 850 263" height="263" width="850">
<path stroke-width="1.33333" stroke="white" d="M425.936 173.647L411.582 188H157.117L142.763 173.647"></path>
<path stroke-width="1.33333" stroke="white" d="M770.805 173.647L756.451 188H588.506L574.153 173.647"></path>
<path fill="white" d="M71.3101 137.832L70.6657 144.491H32L32.537 123.762L32 75.6444H70.7731L71.2027 76.5037L70.5583 83.1628L54.3402 82.8405L40.6998 83.0553L40.485 105.61L53.3735 105.825L64.7584 105.503L65.4028 106.255L64.651 112.914L52.6217 112.699L40.3776 112.806L40.2702 123.01L40.5924 137.295L54.2328 137.402L70.7731 136.972L71.3101 137.832Z"></path>
<path fill="white" d="M111.095 108.618L134.617 144.491H124.198L121.299 138.906L105.295 115.384L88.8624 139.443L86.1772 144.491H76.9404L100.355 109.692L77.7997 75.6444H88.2179L91.1179 81.1221L105.94 103.14L120.762 81.0147L123.554 75.6444H132.898L111.095 108.618Z"></path>
<path fill="white" d="M168.619 75.537C175.349 75.537 180.541 77.2913 184.192 80.7998C187.844 84.2368 189.67 89.2132 189.67 95.7291C189.67 103.391 187.379 109.405 182.796 113.773C178.285 118.141 172.02 120.325 164 120.325H155.838V123.01L156.267 144.491H147.567L148.104 123.762L147.567 75.6444L168.619 75.537ZM167.222 113.343C171.662 112.627 175.027 110.837 177.318 107.973C179.681 105.109 180.863 101.278 180.863 96.4809C180.863 87.6021 176.137 82.9837 166.685 82.6257L156.267 82.9479L155.945 113.129L167.222 113.343Z"></path>
<path fill="white" d="M231.4 116.673C236.126 124.478 242.069 133.07 249.229 142.45L249.122 143.524C246.544 144.527 243.895 145.171 241.174 145.457L239.992 144.706C234.121 135.898 228.858 127.306 224.204 118.928H211.638V123.01L212.067 144.491H203.367L203.904 123.762L203.367 75.6444L224.419 75.537C231.149 75.537 236.341 77.2555 239.992 80.6924C243.716 84.0578 245.577 88.891 245.577 95.1921C245.577 99.9179 244.324 104.178 241.818 107.973C239.384 111.697 235.911 114.597 231.4 116.673ZM211.745 111.625L224.634 111.947C232.653 109.656 236.663 104.321 236.663 95.9439C236.663 91.5761 235.481 88.3182 233.119 86.1701C230.756 83.9504 227.211 82.7689 222.485 82.6257L212.067 82.9479L211.745 111.625Z"></path>
<path fill="white" d="M302.254 137.832L301.609 144.491H262.943L263.48 123.762L262.943 75.6444H301.717L302.146 76.5037L301.502 83.1628L285.284 82.8405L271.643 83.0553L271.428 105.61L284.317 105.825L295.702 105.503L296.346 106.255L295.594 112.914L283.565 112.699L271.321 112.806L271.214 123.01L271.536 137.295L285.176 137.402L301.717 136.972L302.254 137.832Z"></path>
<path fill="white" d="M333.446 75.1074C338.387 75.1074 343.506 76.1814 348.805 78.3295L347.409 86.5997L345.905 87.0293C343.829 85.454 341.609 84.2368 339.246 83.3776C336.955 82.5183 334.663 82.0887 332.372 82.0887C329.723 82.0887 327.396 82.6257 325.391 83.6998C323.458 84.7738 321.954 86.1701 320.88 87.8886C319.877 89.607 319.376 91.3971 319.376 93.2588C319.376 95.1921 319.949 96.9105 321.095 98.4142C322.312 99.8463 323.816 101.099 325.606 102.173C327.396 103.247 329.83 104.536 332.909 106.04C336.776 107.83 339.89 109.513 342.253 111.088C344.616 112.592 346.621 114.525 348.268 116.888C349.987 119.251 350.846 122.115 350.846 125.48C350.846 129.06 349.879 132.354 347.946 135.361C346.013 138.369 343.292 140.767 339.783 142.558C336.275 144.348 332.265 145.243 327.754 145.243C324.746 145.243 321.596 144.849 318.302 144.061C315.08 143.202 312.073 141.985 309.28 140.409L310.354 131.602L311.536 131.065C314.042 133.5 316.798 135.326 319.806 136.543C322.885 137.689 325.82 138.261 328.613 138.261C331.334 138.261 333.733 137.724 335.809 136.65C337.957 135.576 339.568 134.144 340.642 132.354C341.788 130.564 342.361 128.667 342.361 126.662C342.361 123.654 341.215 121.256 338.924 119.466C336.633 117.604 333.16 115.599 328.506 113.451C324.711 111.589 321.668 109.942 319.376 108.51C317.085 107.007 315.116 105.109 313.469 102.818C311.822 100.455 310.999 97.5908 310.999 94.2254C310.999 90.7169 311.929 87.4947 313.791 84.559C315.724 81.6233 318.374 79.332 321.739 77.6851C325.176 75.9666 329.078 75.1074 333.446 75.1074Z"></path>
<path fill="white" d="M384.107 75.1074C389.047 75.1074 394.167 76.1814 399.466 78.3295L398.069 86.5997L396.566 87.0293C394.489 85.454 392.27 84.2368 389.907 83.3776C387.615 82.5183 385.324 82.0887 383.033 82.0887C380.383 82.0887 378.056 82.6257 376.051 83.6998C374.118 84.7738 372.615 86.1701 371.54 87.8886C370.538 89.607 370.037 91.3971 370.037 93.2588C370.037 95.1921 370.61 96.9105 371.755 98.4142C372.973 99.8463 374.476 101.099 376.266 102.173C378.056 103.247 380.491 104.536 383.57 106.04C387.436 107.83 390.551 109.513 392.914 111.088C395.277 112.592 397.282 114.525 398.929 116.888C400.647 119.251 401.506 122.115 401.506 125.48C401.506 129.06 400.54 132.354 398.606 135.361C396.673 138.369 393.952 140.767 390.444 142.558C386.935 144.348 382.925 145.243 378.414 145.243C375.407 145.243 372.257 144.849 368.963 144.061C365.741 143.202 362.733 141.985 359.941 140.409L361.015 131.602L362.196 131.065C364.702 133.5 367.459 135.326 370.466 136.543C373.545 137.689 376.481 138.261 379.274 138.261C381.995 138.261 384.393 137.724 386.47 136.65C388.618 135.576 390.229 134.144 391.303 132.354C392.449 130.564 393.021 128.667 393.021 126.662C393.021 123.654 391.876 121.256 389.584 119.466C387.293 117.604 383.82 115.599 379.166 113.451C375.371 111.589 372.328 109.942 370.037 108.51C367.745 107.007 365.776 105.109 364.13 102.818C362.483 100.455 361.659 97.5908 361.659 94.2254C361.659 90.7169 362.59 87.4947 364.452 84.559C366.385 81.6233 369.034 79.332 372.4 77.6851C375.837 75.9666 379.739 75.1074 384.107 75.1074Z"></path>
<path fill="white" d="M424.349 123.01L424.779 144.491H416.079L416.616 123.762L416.079 75.6444H424.886L424.349 123.01Z"></path>
<path fill="white" d="M465.163 75C474.615 75 481.846 77.8999 486.859 83.6998C491.942 89.4996 494.484 97.8414 494.484 108.725C494.484 120.468 491.799 129.526 486.429 135.898C481.059 142.2 473.397 145.35 463.444 145.35C454.136 145.35 446.94 142.343 441.856 136.328C436.844 130.313 434.338 121.757 434.338 110.658C434.338 99.2018 436.987 90.3947 442.286 84.2368C447.656 78.0789 455.282 75 465.163 75ZM464.626 81.9813C450.305 81.9813 443.145 91.2181 443.145 109.692C443.145 119.501 444.863 126.769 448.3 131.495C451.809 136.221 457.072 138.584 464.089 138.584C478.41 138.584 485.57 129.168 485.57 110.336C485.57 100.741 483.816 93.6168 480.307 88.9626C476.87 84.3084 471.643 81.9813 464.626 81.9813Z"></path>
<path fill="white" d="M561.265 124.299L561.48 144.491H552.458L516.799 89.3922H516.262L516.155 121.828L516.262 144.491H508.529L508.851 124.084L508.637 75.6444H517.551L553.102 130.743H553.854L553.747 76.074L561.802 75.4296L561.265 124.299Z"></path>
<path fill="white" d="M621.114 137.832L620.47 144.491H581.804L582.341 123.762L581.804 75.6444H620.577L621.007 76.5037L620.363 83.1628L604.145 82.8405L590.504 83.0553L590.289 105.61L603.178 105.825L614.563 105.503L615.207 106.255L614.455 112.914L602.426 112.699L590.182 112.806L590.075 123.01L590.397 137.295L604.037 137.402L620.577 136.972L621.114 137.832Z"></path>
<path fill="white" d="M658.537 75.2148C668.346 75.2148 675.865 78.0073 681.092 83.5924C686.319 89.1774 688.932 97.197 688.932 107.651C688.932 119.752 686.104 129.025 680.447 135.469C674.79 141.913 666.664 145.135 656.066 145.135C653.131 145.135 649.55 145.064 645.326 144.92C641.173 144.849 637.306 144.706 633.726 144.491H633.619L634.156 123.762L633.619 75.6444H633.726L658.537 75.2148ZM657.463 137.939C664.766 137.939 670.351 135.576 674.218 130.85C678.156 126.053 680.125 118.929 680.125 109.477C680.125 91.4329 672.714 82.4109 657.892 82.4109C653.381 82.4109 648.19 82.5541 642.318 82.8405L641.889 123.01L642.211 137.295C644.431 137.51 647.08 137.689 650.159 137.832C653.31 137.903 655.744 137.939 657.463 137.939Z"></path>
<path fill="white" d="M711.324 123.01L711.754 144.491H703.054L703.591 123.762L703.054 75.6444H711.861L711.324 123.01Z"></path>
<path fill="white" d="M770.709 76.5037L770.065 83.1628L758.035 82.5183H751.054L750.732 123.01L751.054 144.491H742.354L742.999 123.762L742.462 82.5183H735.48L723.236 83.1628L722.699 82.3035L723.344 75.6444H770.065L770.709 76.5037Z"></path>
<path fill="white" d="M800.265 75.1074C805.206 75.1074 810.326 76.1814 815.624 78.3295L814.228 86.5997L812.724 87.0293C810.648 85.454 808.428 84.2368 806.065 83.3776C803.774 82.5183 801.483 82.0887 799.191 82.0887C796.542 82.0887 794.215 82.6257 792.21 83.6998C790.277 84.7738 788.773 86.1701 787.699 87.8886C786.697 89.607 786.195 91.3971 786.195 93.2588C786.195 95.1921 786.768 96.9105 787.914 98.4142C789.131 99.8463 790.635 101.099 792.425 102.173C794.215 103.247 796.649 104.536 799.728 106.04C803.595 107.83 806.71 109.513 809.073 111.088C811.436 112.592 813.44 114.525 815.087 116.888C816.806 119.251 817.665 122.115 817.665 125.48C817.665 129.06 816.698 132.354 814.765 135.361C812.832 138.369 810.111 140.767 806.602 142.558C803.094 144.348 799.084 145.243 794.573 145.243C791.566 145.243 788.415 144.849 785.121 144.061C781.899 143.202 778.892 141.985 776.099 140.409L777.173 131.602L778.355 131.065C780.861 133.5 783.618 135.326 786.625 136.543C789.704 137.689 792.64 138.261 795.432 138.261C798.153 138.261 800.552 137.724 802.628 136.65C804.776 135.576 806.387 134.144 807.462 132.354C808.607 130.564 809.18 128.667 809.18 126.662C809.18 123.654 808.034 121.256 805.743 119.466C803.452 117.604 799.979 115.599 795.325 113.451C791.53 111.589 788.487 109.942 786.195 108.51C783.904 107.007 781.935 105.109 780.288 102.818C778.641 100.455 777.818 97.5908 777.818 94.2254C777.818 90.7169 778.749 87.4947 780.61 84.559C782.544 81.6233 785.193 79.332 788.558 77.6851C791.995 75.9666 795.898 75.1074 800.265 75.1074Z"></path>
</svg>
