<svg xmlns="http://www.w3.org/2000/svg" fill="none" viewBox="0 0 850 263" height="263" width="850">
<path fill="white" d="M185.008 114.036C189.016 122.436 191.292 131.823 191.292 141.754C191.292 151.685 189.05 161.106 185.008 169.473V114.036ZM185.008 86.5551V60.5711C187.828 58.3264 191.394 57 195.266 57C204.403 57 211.808 64.4143 211.808 73.5631C211.808 82.7119 204.403 90.1262 195.266 90.1262C191.394 90.1262 187.828 88.7998 185.008 86.5551ZM127.163 77.5423C152.672 77.5423 174.682 92.4389 185.042 114.036V169.507C174.716 191.103 152.672 206 127.163 206C91.7358 206 63 177.261 63 141.788C63 106.315 91.7358 77.5423 127.163 77.5423ZM185.008 60.5711C181.17 63.598 178.725 68.2915 178.725 73.5631C178.725 78.8347 181.17 83.5282 185.008 86.5551V60.5711Z" clip-rule="evenodd" fill-rule="evenodd"></path>
<path fill="white" d="M687.07 188.28V172.261C693.931 172.261 700.147 169.472 704.665 164.949L715.976 176.275C708.571 183.689 698.347 188.28 687.07 188.28ZM687.07 155.324V139.305H710.643C707.314 129.476 698.007 122.402 687.07 122.402V106.383C706.907 106.383 723.448 120.531 727.185 139.305C727.694 141.89 727.966 144.577 727.966 147.332C727.966 150.086 727.694 152.739 727.185 155.358H687.07V155.324ZM761.253 141.04C761.253 131.687 768.896 124 778.271 124H787V106.383H778.271C759.215 106.383 743.659 121.994 743.659 141.04V185.934H761.253V141.04ZM687.07 106.383V122.402C676.133 122.402 666.826 129.476 663.497 139.305H687.07V155.324H663.497C666.826 165.153 676.133 172.227 687.07 172.227V188.246C667.233 188.246 650.692 174.098 646.955 155.324C646.446 152.739 646.174 150.052 646.174 147.298C646.174 144.543 646.446 141.89 646.955 139.271C650.692 120.531 667.233 106.383 687.07 106.383ZM588.668 188.28V172.261C602.391 172.261 613.566 161.106 613.566 147.332C613.566 133.557 602.425 122.402 588.668 122.402V106.383C598.043 106.383 606.671 109.546 613.566 114.852V76.1477H629.564V147.332C629.53 169.915 611.222 188.28 588.668 188.28ZM588.668 106.383V122.402C574.912 122.402 563.771 133.557 563.771 147.332C563.771 161.072 574.912 172.261 588.668 172.261V188.28C566.081 188.28 547.773 169.949 547.773 147.332C547.773 124.715 566.081 106.383 588.668 106.383ZM407.354 188.28V172.261C421.111 172.261 432.252 161.106 432.252 147.332C432.252 133.557 421.111 122.402 407.354 122.402V106.383C429.942 106.383 448.25 124.715 448.25 147.332C448.25 169.915 429.942 188.28 407.354 188.28ZM498.589 124.613C507.93 124.613 515.606 132.265 515.606 141.652V186.546H533.201V141.652C533.201 122.572 517.61 106.995 498.589 106.995C479.534 106.995 463.977 122.606 463.977 141.652V186.546H481.572V141.652C481.572 132.265 489.214 124.613 498.589 124.613ZM291.392 108.288L274.273 161.616L258.75 108.594H240.612L265.645 186.546H281.44L298.865 133.659L316.12 186.546H331.914L357.219 108.594H339.523L323.728 161.616L306.473 108.288H291.392ZM407.354 106.383V122.402C393.632 122.402 382.457 133.557 382.457 147.332C382.457 161.072 393.598 172.261 407.354 172.261V188.28C384.766 188.28 366.458 169.949 366.458 147.332C366.492 124.715 384.8 106.383 407.354 106.383Z" clip-rule="evenodd" fill-rule="evenodd"></path>
</svg>
